<?xml version="1.0" encoding="UTF-8"?>
<svg width="1013px" height="659px" viewBox="0 0 1013 659" version="1.1" xmlns="http://www.w3.org/2000/svg" xmlns:xlink="http://www.w3.org/1999/xlink">
    <!-- Generator: Sketch 40.1 (33804) - http://www.bohemiancoding.com/sketch -->
    <title>sa_world</title>
    <desc>Created with Sketch.</desc>
    <defs>
        <filter x="-50%" y="-50%" width="200%" height="200%" filterUnits="objectBoundingBox" id="filter-1">
            <feOffset dx="-7" dy="17" in="SourceAlpha" result="shadowOffsetOuter1"></feOffset>
            <feGaussianBlur stdDeviation="37" in="shadowOffsetOuter1" result="shadowBlurOuter1"></feGaussianBlur>
            <feColorMatrix values="0 0 0 0 0   0 0 0 0 0   0 0 0 0 0  0 0 0 0.5 0" type="matrix" in="shadowBlurOuter1" result="shadowMatrixOuter1"></feColorMatrix>
            <feMerge>
                <feMergeNode in="shadowMatrixOuter1"></feMergeNode>
                <feMergeNode in="SourceGraphic"></feMergeNode>
            </feMerge>
        </filter>
    </defs>
    <g id="Page-1" stroke="none" stroke-width="1" fill="none" fill-rule="evenodd" opacity="0.300000012">
        <g id="sa_world" filter="url(#filter-1)" style="mix-blend-mode: multiply;" transform="translate(31.000000, 45.000000)" fill="#FFFFFF">
            <g id="Group">
                <polygon id="kalimantan_1_" points="781.1 322.3 778.8 331 766.3 335.2 762.5 330.8 760.7 331.3 764.1 344.4 769.2 345 776 347.6 776 350.2 779.1 349.6 783.6 343.3 783.6 338.2 786.1 333.1 788.9 333.7 785.5 326.6 785 322 781.1 322.3"></polygon>
                <polygon id="papua_new_guinea_1_" points="852.2 346.1 851.8 370.5 855.3 370.3 859.9 364.9 863.8 365.1 866.3 367.3 867.1 374.2 875.1 378.4 877.1 377.6 877.1 375.1 870.7 369.8 867.5 362.5 870 361.3 868.2 357.3 864.5 357.2 863.6 352.9 853.8 346.3 852.2 346.1"></polygon>
                <polygon id="mexico_1_" points="136.9 223.3 141.7 238.5 139.5 239.8 139.7 242.8 143.9 246.1 143.9 252.1 149.1 257.1 146.9 242.2 143.9 232.4 144.7 225.6 147.2 225.8 148.2 228.1 147.2 233.9 160.2 259.3 160.2 268.4 170.7 280.7 182.2 286 187 283.2 193.8 288.7 197.8 284.7 196 280.2 201.8 278.4 203.6 279.4 205.4 277.6 208.2 277.6 213.2 268.8 210.7 266.5 200.9 268.8 198.7 275.3 192.9 276.3 186.1 273.5 183.1 263.9 185.4 251.8 180.8 248.9 178.6 237.3 176.7 236.5 173.3 239.9 169.4 237.8 167.9 230.1 152.5 228.5 144.6 222.5 136.9 223.3"></polygon>
                <polygon id="estonia_1_" points="517.2 141.5 511.6 141.3 508.1 143.5 508.1 145.1 510.4 147.3 517.6 148.5 517.2 141.5"></polygon>
                <polygon id="algeria_1_" points="473.3 225.3 469.2 223.9 452.2 227.1 448.5 229.9 450.8 241.6 444 241.9 439.9 248.4 430.2 250.7 430.2 255.5 462.1 279.9 467.5 280.4 485.6 266.3 483.8 264 480.4 263.5 478.4 260.1 478.4 246 477 244.6 477.2 241 473.6 237.4 473.1 233.5 474.7 232.4 474 228.3 473.3 225.3"></polygon>
                <polygon id="morocco_1_" points="447.7 230.1 436.2 230.1 433.9 235.1 428.7 237.6 424.4 249.2 416 254.2 404.2 273.6 415.7 273.4 416.2 267.7 419.1 267.7 419.1 260 429.3 260 429.5 250 439.2 247.7 443.3 241.1 449.6 240.9 447.7 230.1"></polygon>
                <polygon id="mauretania_1_" points="404.3 274.5 406.5 277.4 406 289.7 409.2 287.4 411.5 286.9 414.7 288 418.3 293 421.7 290.7 438.2 290.5 434.1 262.9 438.5 262.9 430.3 256.7 430.3 260.8 420 260.8 420 268.6 417 268.6 416.6 274.3 404.3 274.5"></polygon>
                <polygon id="senegal_1_" points="409.6 288.2 405.7 291.1 404.8 292.7 404.5 294.3 406 295.3 410.8 295.2 413.9 294.4 414.3 295.9 414 297.9 417 299.4 417.6 300.1 421.5 300.2 421.6 298.5 418 294.2 414 288.8 411.5 287.8 409.6 288.2"></polygon>
                <polygon id="gambia_1_" points="406.3 296.2 406.2 297.3 413.1 297.2 413.5 296.2 413.4 295.2 411.4 296 406.3 296.2"></polygon>
                <polygon id="casamance_1_" points="406.2 298.1 407.4 301.1 408.1 299.2 416.5 300.1 412.9 298.2 406.2 298.1"></polygon>
                <polygon id="bissau_1_" points="408 302.4 409.4 305.2 413.3 301.8 413.3 300.8 408.7 300.1 408 302.4"></polygon>
                <polygon id="guinee_1_" points="409.9 305.8 412.9 310.5 416.9 307.1 421 306.9 424.4 311.4 427.3 313.3 428.4 311.2 429.4 310.7 429.3 306.1 427.4 300.6 421.5 301.2 414.3 300.6 414.3 302.5 409.9 305.8"></polygon>
                <polygon id="sierra_leone_1_" points="413.4 311 419 316.5 423 311.6 420.5 307.6 417 308 413.4 311"></polygon>
                <polygon id="liberia_1_" points="419.6 317 430.6 324.3 430.3 318.7 427 314.8 423.8 311.9 419.6 317"></polygon>
                <polygon id="ivoire_1_" points="431.5 324.6 435.8 321.6 441.1 320.7 446.5 321.9 443.7 317.7 442.9 315.1 443.7 307.5 438.8 307.7 436.6 305.6 432 305.7 429.8 306.1 430 311.2 428.8 311.7 427.4 314.3 431 318.5 431.5 324.6"></polygon>
                <polygon id="mali_1_" points="418.9 293.7 422 291.6 439.1 291.5 435.1 264 439.6 263.9 461.5 280.6 464.4 281 463.3 290.3 449.5 291.5 438.9 299.4 437 304.8 429.6 305.1 427.7 299.7 422.1 300.1 422.3 298.3 418.9 293.7"></polygon>
                <polygon id="burkina_1_" points="450 292.1 453.6 291.8 459.6 300.2 454.1 304.4 450.1 303.4 444.7 303.5 443.8 306.7 439.3 306.9 438.1 305.2 439.7 300.1 450 292.1"></polygon>
                <polygon id="niger_1_" points="460.3 299.9 462.8 299.8 465.1 296.3 469 295.6 473.1 298.1 481.9 298.3 488.7 295.5 491.2 293.3 491.4 290.4 496.1 285.6 497.3 275.1 494.2 268.6 486.2 266.7 467.8 281.1 465.2 280.9 464.1 290.9 454.7 291.8 460.3 299.9"></polygon>
                <polygon id="ghana_1_" points="443.8 314.9 444.9 317.5 447.8 322.1 449.4 322 453.8 319.5 453.5 305.2 450.1 304.2 445.3 304.3 443.8 314.9"></polygon>
                <polygon id="togo_1_" points="454.7 319.1 457.4 317.5 457.3 307.1 455.6 304.3 454.5 305.2 454.7 319.1"></polygon>
                <polygon id="benin_1_" points="458.1 317.3 460.2 317.3 460.3 311.3 463 307.4 462.9 300.6 460.5 300.5 456.3 303.8 458 307.1 458.1 317.3"></polygon>
                <polygon id="nigeria_1_" points="461 317.2 464.9 317.4 469.6 322.7 471.9 323.3 473.7 322.4 476.4 322 477.3 318.2 481 315.7 485 315.5 492.4 301.9 492.3 298.8 488.9 296.2 482.1 299.2 473 299.1 468.6 296.3 465.5 297 463.9 299.8 463.8 307.8 461.2 311.5 461 317.2"></polygon>
                <polygon id="tunisia_1_" points="474.3 225.2 479.8 223 481.6 224.2 481.7 225.6 480.8 226.7 480.9 228.7 481.8 229.2 481.8 232.7 480.8 234.3 480.9 235.3 484.6 236.6 481.6 241.2 480.4 241.1 480.2 244.8 478.9 245 477.8 244 478.1 240.2 474.5 236.7 474 233.6 475.8 232.2 474.3 225.2"></polygon>
                <polygon id="libya_1_" points="479.5 245.9 481.1 245.6 481.6 242 482.4 242 485.6 236.8 493.5 239.1 495.6 242.4 503.3 245.9 507.3 244.2 506.9 242.5 505.1 240.8 505.3 239.6 508.2 237.2 513.9 237.2 516.1 240.1 520.6 240.8 521.2 277.7 517.8 277.6 497.4 267 495.2 268.2 486.8 266.1 484.5 263.1 481.2 262.6 479.5 259.6 479.5 245.9"></polygon>
                <polygon id="egypt_1_" points="521.4 240.9 524.1 241 529.3 242.4 531.8 242.5 534.9 239.9 536.3 239.9 538.9 241.3 542.2 241.3 542.8 241.3 544.9 247.3 545.5 249.2 546 252.1 545 252.8 543.3 251.9 541.3 245.5 539.5 245.4 539.4 247.6 540.6 251.3 550 262.9 550.2 267.9 547.5 271 521.9 270.7 521.4 240.9"></polygon>
                <polygon id="chad_1_" points="492.2 293.9 492.3 290.9 497 286.3 498.3 275 495.1 269 497.3 267.9 518.7 279 518.6 289.9 514.8 293.1 514.8 298.7 517.3 303.5 513 303.5 505.8 310.6 505.6 312.8 500.3 312.7 500.2 313.7 497.2 313.3 495.1 309.4 493.5 308.6 493.7 307.4 495.7 305.9 495.7 298.9 493 298.5 489.7 296.1 492.2 293.9 492.2 293.9"></polygon>
                <polygon id="south_sudan_1_" points="548.5 308.2 545.6 303.3 545.3 299.7 544.6 299.8 544.4 300.9 540.5 306.5 537.4 305 534.3 307.6 527.9 307.2 525.1 305 521.1 307.1 520.9 308.5 519.7 309.2 532 321.9 538.7 322.3 539.7 323.8 549.3 324 549.4 321.8 550.2 320.3 553.4 319.9 549.4 314.1 546.5 314.1 545.7 310 548.1 309"></polygon>
                <polygon id="sudan_1_" points="551.4 268.5 547.7 272.2 521.9 272 522.2 278.6 519.7 278.5 519.5 290.3 515.8 293.5 515.6 298.4 518.3 303.7 521.2 305.4 521.2 305.8 525.2 303.7 528.3 306.1 533.9 306.4 537.2 303.7 540.1 305.1 543.3 300.4 543.6 298.8 546.1 298.3 546.5 302.8 549 307 555 294.1 555 286.3 559.4 281.2"></polygon>
                <polygon id="cameroon_1_" points="477.3 322.1 480.5 325.1 480.3 329.7 498 329.3 499.4 327.7 494.3 322.2 493.5 320.2 496.7 314.2 494.5 310.2 492.7 309.2 492.7 307.2 494.8 305.8 494.9 299.5 493.2 299.3 493.2 302.6 485.8 316.5 481.3 316.7 478.2 318.8 477.3 322.1"></polygon>
                <polygon id="eritrea_1_" points="556.1 292.6 555.9 286.7 559.9 282.1 561 282.9 563 289.4 572.4 296.4 570.7 298.5 563.9 292.6 556.1 292.6"></polygon>
                <polygon id="djibouti_1_" points="570.9 299.4 570.3 302.8 574.3 302.7 574.4 297.8 572.9 296.9 570.9 299.4"></polygon>
                <polygon id="ethiopia_1_" points="548.9 309.6 556.2 293.4 563.4 293.4 569.8 299 569.3 303.6 574.3 303.6 574.8 306.4 582.8 311.2 587.8 311.4 578.4 321.5 565.4 325.5 562.2 325.5 556.5 320.6 554.2 319.6 549.8 313.1 546.9 313.1 546.6 310.1 548.9 309.6"></polygon>
                <polygon id="somaliland_1_" points="575.2 302.9 579.3 305.7 580.5 305.6 590.6 302.1 591.8 305.8 591 308.9 588.8 310.6 583.3 310.2 575.5 305.4 575.2 302.9"></polygon>
                <polygon id="somalia_1_" points="591.4 301.9 595.8 300.2 597.3 301.1 597.1 305 593.1 316.5 571.3 339.9 568.8 338.2 568.6 328.3 571.9 324.5 578.9 322.4 589.1 311.6 591.8 309.2 592.6 305.7 591.4 301.9"></polygon>
                <polygon id="centrafrique_1_" points="495.1 321.9 499.8 326.9 501.6 324.5 504.5 324.6 505.1 322.3 508 320.5 514 324.6 517.5 321.2 530.9 321.8 518.4 309 520.1 308 520.3 305.7 517.5 304.4 513.4 304.4 506.7 311 506.5 313.7 501.2 313.5 501 314.7 497.6 314.3 494.5 320.2 495.1 321.9"></polygon>
                <polygon id="gabon_1_" points="485.8 330.5 485.7 333 480.1 332.9 476.6 339.6 484.7 348.5 486.7 346.8 486.6 345.1 485.2 344.5 485.2 343.3 488.3 341.3 491.1 343.4 494.1 343.5 494 333 489.2 332.8 489.1 330.6 485.8 330.5"></polygon>
                <polygon id="equatorial_guinea_1_" points="480.4 330.5 480.3 331.9 484.8 332.1 484.7 330.5 480.4 330.5"></polygon>
                <polygon id="congo_1_" points="490.4 330.4 490.3 331.9 495.1 332 495.3 344.4 490.9 344.3 488.4 342.3 486.4 343.4 486.3 343.9 487.3 344.4 487.6 346.9 484.9 349.2 485.5 350.4 488.5 348.1 489.9 348.1 490.4 349.5 492.3 350.3 498.4 345.1 498.3 341.3 499.6 338.2 503.5 335.3 504.5 325.5 501.7 325.5 498.5 329.9 490.4 330.4"></polygon>
                <polygon id="cabinda_1_" points="486 351.1 487.7 353.4 489.9 351.3 489.2 349.1 488.6 349.1 486 351.1"></polygon>
                <polygon id="drc_1_" points="488.8 353.6 499.1 353.4 501.2 356.4 501.1 358.6 501.9 359.3 507 359.3 508.5 356.4 510.6 356.4 511.4 357.3 514.3 357.2 515.1 367.3 520.1 367.5 520.1 368.3 533.4 374.3 534 375.5 536.8 375.5 536.5 371.3 531.5 368.9 531.8 365.7 534 360.6 539 360.4 534.7 346.3 534.8 340.3 541.5 329.8 541.6 328.3 540.6 327.8 540.6 324.9 539.4 324.8 538.2 323.2 517.9 322.3 514.2 325.9 508.1 321.9 506 323.2 504.4 336.3 500.5 339.3 499.3 341.9 499.5 345.8 492.5 351.5 490.6 350.7 490.8 351.8 488.8 353.6"></polygon>
                <polygon id="rwanda_1_" points="537.3 337.8 540.1 340.4 540 343.2 535.6 343.3 535.6 340.2 537.3 337.8"></polygon>
                <polygon id="burundi_1_" points="535.6 344.1 539.9 344 538.8 347.7 537.7 348.6 536.4 348.6 535.5 346.1 535.6 344.1"></polygon>
                <polygon id="uganda_1_" points="537.7 336.9 540.7 339.7 542.6 338.5 547.7 337.7 548.6 337.8 548.9 335.8 551.8 329.7 549.4 324.6 541.5 324.6 541.5 326.7 542.6 327.7 542.4 329.8 537.7 336.9"></polygon>
                <polygon id="kenya_1_" points="550.3 324.4 553 329.6 549.8 336.3 549.4 338.3 565.3 348.2 570.2 340.4 567.7 338.4 567.7 328.2 570.8 324.8 565.8 326.5 562 326.5 556.1 321.5 554.2 320.7 550.7 321 550.1 322 550.3 324.4"></polygon>
                <polygon id="tanzania_1_" points="550 369.3 567.5 367.2 563.6 359.6 563.4 352.3 564.7 348.8 548 338.3 542.8 339.2 541 340.5 540.8 343.5 539.6 347.7 538.4 349.2 536.6 349.4 540 361 545.5 363.6 549.3 363.7 550 369.3"></polygon>
                <polygon id="zambia_1_" points="514 382.6 517.2 387 522.1 387.3 523.8 388.3 528.9 388.4 533.3 382.2 545.7 376.7 546.8 371.8 545.4 364.8 538.9 361.1 534.6 361.4 532.4 366.2 532.5 368.4 537.6 370.9 537.9 376.3 533.5 376.5 532.4 374.7 520.3 369.5 519.9 373.5 514.2 373.7 514 382.6"></polygon>
                <polygon id="angola_1_" points="488.1 354.6 491.5 367.3 491.4 371.3 486.4 376.7 485.6 385.4 504.8 385.6 511 387.9 516.2 387.2 513.2 383.4 513.2 372.7 519.1 372.5 519.1 368.3 514.3 368.1 513.3 358.2 511.3 358.2 510.2 357.2 509 357.3 507.4 360.4 501.3 360.4 499.9 359 500.3 357 498.6 354.6 488.1 354.6"></polygon>
                <polygon id="malawi_1_" points="546.6 377.3 549.7 380.5 549.6 384.7 550.2 386.5 554.3 382 553.8 376.3 551.6 374.6 549.6 364.6 546.2 364.5 547.7 371.7 546.6 377.3"></polygon>
                <polygon id="mozambique_1_" points="540.6 411.1 543.3 413.3 549.6 409.4 550.6 403.7 550.6 394.2 560.8 385.9 562.5 386 568.7 380.1 567.7 367.9 551.4 370 551.9 373.7 554.7 375.9 555.4 382.5 549.9 387.9 548.6 384.9 548.8 380.9 545.6 377.5 537.8 381.1 545 384.8 545.2 395.5 540.4 402.6 540.6 411.1"></polygon>
                <polygon id="zimbabwe_1_" points="524.1 390.2 533.1 400.3 540 402.1 544.6 394.9 544.2 385.3 536.7 381.4 533.9 382.7 529.7 389.1 523.9 389 524.1 390.2"></polygon>
                <polygon id="namibia_1_" points="496 419.8 499.4 420 501.4 422 506.1 422.1 507.2 408.8 507.2 400.1 510.2 399.5 511.3 390.4 518.9 390.2 521.6 388 517.1 387.8 510.9 388.6 504.3 386.2 485.6 386.2 486.1 391.5 492.3 400.7 491.2 405.4 491.3 407.9 496 419.8"></polygon>
                <polygon id="botswana_1_" points="507.9 409.1 510.1 409.8 509.8 415.9 512 416.2 517.1 411.6 523.2 412.3 524.8 408.2 532.5 401.2 523.2 390.5 523.1 388.7 522.1 388.4 519.3 391 512 391.2 511 400.3 508.1 401 507.9 409.1"></polygon>
                <polygon id="swaziland_1_" points="540.3 411.9 537.8 412.3 536.7 415.3 538.6 417.1 540.9 417.1 542.9 414.3 540.3 411.9"></polygon>
                <polygon id="lesotho_1_" points="526.8 423.2 529.8 420.8 531.2 420.9 532.9 423.1 532.7 425.3 529.8 426.4 529.8 427.2 526.6 427 525.8 424.6 526.8 423.2"></polygon>
                <path d="M533.6,401.5 L525.7,408.8 L523.8,413.3 L517.5,412.5 L512.3,417.1 L508.8,416.8 L509.1,410.4 L507.9,410 L507,423.1 L500.9,423 L499,420.8 L496.3,420.8 L498.8,427.9 L503.2,432.1 L500,435.8 L502,440.4 L506.7,442.2 L510.5,439 L521.3,439.1 L522.1,438.1 L526.9,437.3 L543.1,421.2 L543,416.1 L541.3,418.3 L538.7,418.3 L535.5,415.7 L537.1,411.7 L539.9,411.1 L539.7,402.9 L533.6,401.5 L533.6,401.5 L533.6,401.5 Z M529.8,420 L531.3,419.9 L533.8,422.6 L533.7,425.7 L530.8,427.2 L530.6,428.2 L526.2,428.2 L524.8,424.9 L526,422.5 L529.8,420 L529.8,420 L529.8,420 Z" id="south_africa_1_"></path>
                <polygon id="greenland_1_" points="320.6 47.9 319.2 50.1 321.7 52.6 320.6 55 324.1 59.6 328.5 58.2 334.2 57.7 340.7 64.8 345.1 76.5 341.6 83.8 346.5 83 349.2 84.6 349.5 88.1 343.5 88.4 346.8 91.7 350.9 92.5 341.9 104.5 340.8 111.8 342.7 117.8 341.3 121.3 343.8 128.9 348.4 134.1 349.8 133.8 352.8 133 353.1 137.4 355 140.1 358.5 139.8 361.2 129.7 369.4 119.6 381.6 114.7 389.2 105.2 392.7 106.8 400 106.8 406 100.8 413.3 97.8 414.1 93.2 409.5 89.1 405.4 87.7 403.2 82 408.4 79 416.6 83.3 419.3 80.3 414.9 77.9 424.1 65.4 422.5 60 418.1 59.7 419.7 54.8 425.1 52.4 436.2 42.6 432.9 39.1 420.4 40.2 413.9 46.7 417.7 38.3 413.3 37.2 410.8 41.5 407.3 38.5 397.5 39.6 400.2 35.3 416.2 34.8 412.1 29.4 394.7 26.1 387.6 27.2 387.9 30.7 380.6 28.2 380.9 25.8 376 27 374.9 29.7 380.3 31.6 374.6 35.7 370.5 31.1 364.8 29.5 364 33.9 358.3 33.9 356.1 29.3 347.1 27.9 342.2 30.4 341.9 33.7 335.7 32.9 331.9 34.5 332.2 38.3 332.2 40.2 325.1 41.6 321.8 39.4 319.6 42.9 322.9 46.4 329.7 45.6 330.2 47.8 325 50.3 320.6 47.9"></polygon>
                <polygon id="disko_1_" points="342.3 90.3 343.9 92.7 343.1 95.7 341.5 95.7 339.3 93.3 339.8 91.4 342.3 90.3"></polygon>
                <polygon id="milne_1_" points="410.3 83.5 414.9 84.9 414.6 88.7 409.7 86.3 408.6 84.9 410.3 83.5"></polygon>
                <polygon id="australia_1_" points="760.6 425.8 760.3 451.2 756.4 454.1 756.1 456.6 761.4 460.2 774.5 457.7 781.2 457.7 783.7 454.1 798.6 451.2 809.2 454.4 808.5 458.7 809.9 463 818.1 461.6 818.4 463.7 813.1 467.6 814.9 469 818.8 467.6 817.7 479.4 825.2 485.1 829.5 483.7 831.6 485.8 844 484 855.7 465 860 463.9 868.5 448.2 870.6 434.6 865.3 427.8 867.4 426.4 863.1 413.2 858.5 410 859.2 392.1 855 389 853.9 379 851.8 379 844.7 402.6 840.8 403 831.9 394.1 836.9 380.9 827.7 379.1 817.4 382 814.6 390.2 810 391.3 809.7 385.6 790.9 397 791.2 401.3 788.4 405.2 781.3 405.2 766 411.6 760.6 425.8"></polygon>
                <polygon id="tasmania_1_" points="825.2 494.1 823.4 501.3 823.7 506.3 829 505.9 835 496.6 825.2 494.1"></polygon>
                <polygon id="new_zealand_north_island_1_" points="912.5 479.8 913.6 491.6 912.2 497 906.9 500.9 907.2 505.5 907.2 510.5 908.6 512.3 923.1 499.8 923.1 497 919.6 497 914.6 480.2 912.5 479.8"></polygon>
                <polygon id="new_zealand_south_island_1_" points="901.8 505.6 904.6 511 896.8 518.5 896.1 522.4 890.8 523.1 881.9 531.3 873.7 527.4 873 524.5 887.9 518.1 901.8 505.6"></polygon>
                <polygon id="sumatra_1_" points="721.9 315.4 721.6 317.7 728.4 329.1 730.4 329.1 744.6 352.8 750.3 353.4 753.1 345.1 748.6 342.2 747.8 337.6 721.9 315.4"></polygon>
                <polygon id="east_malaysia_1_" points="763.6 330.8 766.6 334.3 778.2 330.3 780.5 321.5 785.7 321.1 790.4 317.7 784.3 313.2 782.9 310.7 779.9 316.3 781 319.5 779.2 322.2 775.7 321.3 767.3 327.5 767.5 331.1 763.6 330.8"></polygon>
                <polygon id="brunei_1_" points="779.2 317.1 776.3 320.6 778.7 321.3 780 319.4 779.2 317.1"></polygon>
                <polygon id="sulawesi_1_" points="789 347 791.3 349.8 789.8 354 789.8 354.8 793.1 354.8 794.3 344.4 795.4 344.7 797.4 354.2 799.3 354.7 801.1 350.6 799.3 344.5 797.8 341.8 802.4 338.4 801.3 336.9 796.9 339.8 795.7 339.8 793.5 336.6 794.2 335.2 797.8 333.4 803.3 335.1 805 335 809.1 331.1 807.4 329.4 803.6 332.4 801.1 332.4 797.4 330.6 794.7 330.7 791.7 335.5 789.8 343.7 789 347"></polygon>
                <polygon id="maluku_1_" points="813.6 328.4 811.7 332.9 814.7 336.8 815.7 336.8 817 334.2 817.7 333.3 816.4 331.9 814.5 331.2 813.6 328.4"></polygon>
                <polygon id="seram_1_" points="819.4 343.3 815.4 344.2 814.2 345.5 815.2 347.2 817.9 346.2 819.6 345.2 822.1 347.2 823.2 346.3 821.2 343.9 819.4 343.3"></polygon>
                <polygon id="java_1_" points="752.6 356.2 749.8 358.1 750.4 359.7 759.2 361.7 763.6 362.5 765.5 364.5 770.5 364.9 772.9 366.9 775.1 366.4 777.1 364.6 773.5 362.9 770.4 360.2 762.2 358.2 752.6 356.2"></polygon>
                <polygon id="timor_1_" points="805.6 366.3 800.5 370.6 801 371.7 803.2 371.3 805.7 368.9 810.7 368.2 809.7 366.5 805.6 366.3"></polygon>
                <polygon id="new_ireland_1_" points="879.9 346.9 879 348.1 883.8 352.4 884.5 354.9 885.8 354.8 886 352.2 884.5 350.9 879.9 346.9"></polygon>
                <polygon id="new_britain_1_" points="882.3 352.9 881.3 353.1 880.7 355.7 878.9 356.9 873.4 357.9 873.6 360 879.4 359.7 883.1 357.4 882.9 353.4 882.3 352.9"></polygon>
                <polygon id="palawan_1_" points="788.8 295.4 787.9 297 787.4 299 782.6 305.1 782.9 306.3 784.9 306 791.1 299.1 788.8 295.4"></polygon>
                <polygon id="negros_1_" points="796.5 293.1 796.4 298.1 798.2 299.9 798.9 303.5 800.7 303.9 801.6 301.7 800.2 300.6 799.8 294.3 796.5 293.1"></polygon>
                <polygon id="cebu_1_" points="801.7 295 801.6 299.4 802.6 301.1 804.4 299 803.9 295.1 801.7 295"></polygon>
                <polygon id="samar_1_" points="802.9 291.1 804.7 293.5 805.6 295.8 807.2 295.8 806.9 291.8 805.1 290.6 802.9 291.1"></polygon>
                <polygon id="path7462_1_" points="806.4 300.2 806.8 303.1 803.5 305.8 800.7 306.1 797.7 309.3 797.8 310.8 800.6 309.9 802.5 308.7 804.1 312.8 807 314.8 808.2 314.4 809.2 313.2 806.9 310.9 808.2 309.8 809.7 311 810.7 309.3 809.7 307.2 809.5 302.5 806.4 300.2"></polygon>
                <polygon id="luzon_1_" points="790.8 270.8 788.2 272.6 787.9 278.4 791.9 286.2 793.2 287.3 794.9 286.1 797.9 286.6 798.5 289.2 800.7 289.4 801.7 288 800.4 286.2 798.8 284.7 795.4 284.3 793.6 281.3 795.7 278.1 795.9 275.3 794.5 271.7 790.8 270.8"></polygon>
                <polygon id="mindoro_1_" points="792.2 288.1 793 290.8 794.3 291.7 795.3 290.5 793.8 288.4 792.2 288.1"></polygon>
                <polygon id="hainan_1_" points="759.3 268 756.9 268.7 755.2 270.8 756.6 273.6 758.7 273.8 761.1 271.7 761.7 268.9 759.3 268"></polygon>
                <polygon id="taiwan_1_" points="786.9 246.2 783.4 248.9 783.2 254.1 786.3 257.7 787.1 257 786.9 246.2"></polygon>
                <polygon id="kyushu_1_" points="802.7 214.3 801.1 215.9 801.8 218.2 803.2 218.3 804.2 223.3 805.4 224.5 807.4 222.7 808.3 219.4 805.8 215.8 802.7 214.3"></polygon>
                <polygon id="shikoku_1_" points="811.5 211 808.7 213.6 808.6 216.6 809.3 217.5 813 214.3 812.7 211.1 811.5 211"></polygon>
                <polygon id="honshu_1_" points="807.6 204.8 802.7 210.4 803.6 211.8 806 212.1 810.5 208.6 813.7 208 816.6 211.4 818.8 210.6 819.7 207.3 823.8 207.2 827.8 202.4 825.7 194.4 824.7 190.2 826.8 188.5 822 181.3 820.8 181.4 818.2 184.3 818.2 186.7 819.4 188.1 819.8 194.5 816.8 198.2 815.1 197.1 813.8 200.1 813.5 202.9 814.5 204.5 813.8 205.7 811.6 203.9 810 203.9 808.7 204.7 807.6 204.8"></polygon>
                <polygon id="hokkaido_1_" points="815.9 161.3 814.4 162.7 815.2 165.6 816.5 167 816.4 171.4 814.7 172.1 813.4 175.1 817.3 180.5 819.9 179.6 820.4 178.2 817.6 175.7 819.3 173.5 821.1 173.8 822.5 175.3 822.6 172.1 826.5 168.9 828.7 168.3 826.9 165.2 826 163.8 824.6 164.8 823.4 166.3 820.7 165.7 817.9 163.9 815.9 161.3"></polygon>
                <polygon id="iturup_1_" points="830.3 158.3 827.6 162.1 827.8 163.9 829.1 163.3 832.3 159.4 830.3 158.3"></polygon>
                <polygon id="urup_1_" points="833.8 152.8 832.8 155.4 832.9 157.1 834.5 156 836 152.9 836 151.7 833.8 152.8"></polygon>
                <polygon id="paramushir_1_" points="839.5 129.9 838.3 131.4 838.4 133.8 839.6 133.7 841.5 130.3 839.5 129.9"></polygon>
                <polygon id="onekotan_1_" points="837.2 135.8 837.2 140 838.5 140.5 839.5 139 839.5 135.7 837.2 135.8"></polygon>
                <polygon id="sakhalin_1_" points="798.1 120.4 798 126.6 805.7 138.5 808.5 148.9 813.4 158.1 815.3 158.8 816.9 157.4 817.7 155.2 810.7 147.6 810.9 143.7 812.4 143 812.8 140.7 799.1 121.3 798.1 120.4"></polygon>
                <polygon id="st._lawrence_island_1_" points="880.7 36.2 878.3 37.7 877.7 39.7 878.8 41 881.3 40.2 883.8 41 885.2 41.4 885.1 36.8 880.7 36.2"></polygon>
                <polygon id="st._lawrence_island_west_1_" points="68.6 51.2 72.1 57.7 74.3 57.2 74.3 55 68.6 51.2"></polygon>
                <polygon id="unalaska_west_1_" points="49.1 108.1 48.9 111.1 51.1 110.6 51.1 109.3 49.1 108.1"></polygon>
                <polygon id="umnak_west_1_" points="45.8 109.5 41.5 111.7 42.2 114 43.9 112.7 47.2 111.2 45.8 109.5"></polygon>
                <polygon id="another_aleutian_west_1_" points="27.8 112.3 24.8 111.6 24.3 112.9 24.6 115.4 27.8 112.3"></polygon>
                <polygon id="adak_west_1_" points="21.5 112.1 18.7 110.9 17.7 112.7 19.5 114.5 21.5 112.1"></polygon>
                <polygon id="amchitka_west_1_" points="11.7 109.5 10.4 107.7 9.1 108.2 9.1 110.7 10.6 111.7 11.7 109.5"></polygon>
                <polygon id="attu_west_1_" points="0.9 97.6 2.6 98.8 2.1 100.1 0.9 100.1 0.9 97.6"></polygon>
                <polygon id="madagascar_1_" points="591.7 370.8 589.6 375.9 585.9 382.3 579.5 382.8 576.8 386 577.3 395.8 573.3 400.4 573.8 408.2 577.1 412 581.1 411.5 585.1 408.6 584.2 404 593.3 388.2 591.5 386.2 593.3 382.4 595.3 383 595.9 381.5 594.1 373.7 593 370.5 591.7 370.8"></polygon>
                <polygon id="grande_comore_1_" points="577.1 369.1 577.6 370.6 579.6 370.9 580.4 368.9 577.1 369.1"></polygon>
                <polygon id="mayotte_1_" points="580 372.2 580.8 373.9 582 373.9 582.6 371.8 580 372.2"></polygon>
                <polygon id="guadeloupe_1_" points="276 281.2 274.5 281.8 275 283.1 276.8 282 276.4 281.6 276 281.2"></polygon>
                <polygon id="dominica_1_" points="278.5 282.7 277.6 284.6 278.7 286 280 284.9 278.5 282.7"></polygon>
                <polygon id="martinique_1_" points="281.5 287.9 280.4 288.9 281.2 290.5 282.7 290.1 281.5 287.9"></polygon>
                <polygon id="st._lucia_1_" points="281.4 291.9 280.7 293.4 281.8 294.6 283.3 293.8 281.4 291.9"></polygon>
                <polygon id="st._vincent_1_" points="281.5 295.7 280.3 296.6 281.3 298.4 282.9 297.5 281.5 295.7"></polygon>
                <polygon id="grenada_1_" points="280 299.2 278.9 300.3 279.3 301 280.7 301 281.1 299.8 280 299.2"></polygon>
                <polygon id="trinidad_1_" points="281.7 302.6 280.6 303.6 279.5 303.8 279.5 305.2 281.6 307.2 282.5 305.8 283 304.2 282.8 302.9 281.7 302.6"></polygon>
                <polygon id="puerto_rico_1_" points="270.5 278.9 267.9 278 265.8 279.3 266.9 280.5 270.5 281 270.5 278.9"></polygon>
                <polygon id="haiti-dominican_border_1_" points="250.3 273.2 248.6 274.9 250.5 275.7 250.8 278.1 246.6 278.5 247 280.8 248.2 280.9 248.9 279.8 253.8 280 254.7 281.7 255.8 280.4 259.1 279.5 262 280.1 262.3 278.3 257 274.8 253.6 273.5 250.3 273.2"></polygon>
                <polygon id="domincan_republic_1_" points="262.5 278.3 257.2 274.8 254.7 273.9 253.9 279.9 254.8 281.6 255.9 280.3 259.3 279.4 262.2 280 262.5 278.3"></polygon>
                <polygon id="haiti_1_" points="250.3 273.2 253.7 273.6 253.3 277.8 253 280 249 279.8 248.3 280.9 247.1 280.8 246.7 278.5 250.9 278.1 250.6 275.7 248.7 274.9 250.3 273.2"></polygon>
                <polygon id="iceland_1_" points="405.8 115.2 403.8 114.1 401.2 115.8 398.9 117.9 399 119.1 401.9 119.5 401.7 121.6 400.7 122.7 400.9 123.4 403.8 123.6 403.8 127 408 127.7 410.5 129.1 413.3 129.2 418.1 126.8 421.8 121.9 421.9 118.6 419.6 116.7 417.7 115.1 416.8 115.7 415.5 117.4 414 117.2 412.5 115.6 410.6 115.8 407.8 118.1 406.1 119.9 405.2 119.1 405.1 117.1 406 116.5 405.8 115.2"></polygon>
                <polygon id="spitsbergen_1_" points="487.7 51.8 486.1 50.1 482.4 51.9 475.7 51.9 474.6 55.8 478.4 59.1 480 58.9 482.4 54.9 484.4 56.3 483 59.1 482.3 63.3 483.9 65.9 487.4 60 492 54.4 490.2 52.9 487.7 51.8"></polygon>
                <polygon id="nordaustlandet_1_" points="489.7 44.7 486.7 47.4 488.5 50.1 491.7 50.1 493 51.9 496.9 53.9 501.4 51.3 504.5 48.7 503.4 46.6 500.3 44.8 498.1 46.8 496.6 44.9 495.4 45 493.9 48.3 491.7 46 491.5 44.5 489.7 44.7"></polygon>
                <polygon id="edgeoya_1_" points="496.4 56.9 494 59 492 60.5 492.9 62.2 494.8 62.8 497.9 61.4 499.3 59.6 498 57.5 496.4 56.9"></polygon>
                <polygon id="prince_george_1_" points="547.3 36.6 549 37.3 547.8 39.4 547.8 42.4 545.2 44 542.5 44 541 42.1 541.2 40 542.4 38.4 544.8 38.4 547.3 36.6"></polygon>
                <polygon id="salisbury_1_" points="553.8 34.7 553.8 36.8 555.5 38.2 557.9 38 560 36.1 560 34.7 558.1 34.7 556.6 35.2 555.4 33.8 553.8 34.7"></polygon>
                <polygon id="wilczek_1_" points="563.6 34.9 564.8 37.5 567.2 37.7 569 37 568.1 34.6 565.9 34.1 563.6 34.9"></polygon>
                <polygon id="bell_1_" points="573.4 31.4 571.5 31.1 569.8 32.8 570.7 34.4 571.2 36.8 573.4 35.1 573.9 33.2 573.4 31.4"></polygon>
                <polygon id="novaya_zemlya_north_1_" points="583.9 49.8 583.4 52.2 579.4 55.7 571 57.6 564.1 69 562.9 72.3 569.8 74 570.8 69.8 572.9 63.4 578.2 60.6 582.7 57.1 586 55.7 587.7 55.7 587.7 51 583.9 49.8"></polygon>
                <polygon id="novaya_zemlya_south_1_" points="561.7 75.2 566.4 75.7 567.9 81.1 571.9 85.3 570.5 88.1 568.1 88.1 565.9 85.5 560.9 85.3 558.8 82.5 558.8 80.6 561.9 79.7 561.7 75.2"></polygon>
                <polygon id="komsomolets_1_" points="634.4 16 632.2 14.6 629.6 14.6 629.1 16.2 626.3 17.8 624.2 18.5 623.9 20.6 628.7 20.9 634.4 16"></polygon>
                <polygon id="october_1_" points="639.7 16.5 638.5 19.1 636.1 18.9 632.3 21.7 631.3 25.2 633.7 25.2 635.1 22.9 638.4 25.3 641.5 23.9 643.7 22 642.8 19 641.6 16.9 639.7 16.5"></polygon>
                <polygon id="bolshevik_1_" points="644.7 18.4 645.9 23.3 647.8 27.8 649.9 24.2 653.9 23.3 653.9 20.7 651.3 18.8 644.7 18.4"></polygon>
                <polygon id="kotelny_1_" points="739.2 10.7 741.9 13 743.8 12.2 744.4 9 740.5 6.3 737.9 8 731.6 8.6 731.6 11.4 725 11.5 725 16.1 732.7 21.9 734.7 20.4 734.2 16.3 739.1 15.1 738.1 13.2 736.3 11.4 739.2 10.7"></polygon>
                <polygon id="novaya_sibir_1_" points="746.4 7.9 748.2 11.3 755.2 10.5 757.1 8 756.6 5.9 754.7 5.1 752.9 6.5 747.7 7.6 746.4 7.9"></polygon>
                <polygon id="lyakhovsky_1_" points="745.9 21.2 742.4 20.3 740.4 22.4 739.5 25.3 744.2 24.9 747.8 23.1 745.9 21.2"></polygon>
                <polygon id="wrangel_1_" points="836.1 1.6 833.2 0.7 829.8 1.9 828.1 4.4 830.2 7.2 835.8 4.7 836.9 3.5 836.1 1.6"></polygon>
                <polygon id="sri_lanka_1_" points="680 305.9 680.2 308.6 680.4 310.6 678.9 310.8 679.6 315.3 681.8 316.5 685.2 314.5 684.2 309.8 684.4 308.1 681.2 305.1 680 305.9"></polygon>
                <polygon id="cuba_1_" points="220.3 264.8 220.3 266.1 225.6 266.2 228.1 264.7 228.5 265.8 233.7 267.1 238.3 271.3 237.2 272.8 237.4 274.5 241.3 275.5 245.2 273.7 246.9 271.9 244.4 270.6 231.5 263 227 262.5 220.3 264.8"></polygon>
                <polygon id="bimini_1_" points="239 257 237.7 256.6 237.6 259 239.2 260.6 240.3 259 239 257"></polygon>
                <polygon id="andros_1_" points="241.6 260.8 239.9 261.8 241.5 264.1 242.4 262.9 241.6 260.8"></polygon>
                <polygon id="inagua_1_" points="247.2 262.5 245.4 262.4 245.6 263.6 247 265.6 248.2 264.3 247.2 262.5"></polygon>
                <polygon id="eleuthera_1_" points="246.3 260.2 243.3 258.9 242.7 255.9 243.9 255.4 245.1 257.7 246.3 258.6 246.3 260.2"></polygon>
                <polygon id="grand_bahama_1_" points="243.4 254.1 241.8 253.7 241.5 251.8 239.9 251.2 241 250.1 242.9 250.8 244.3 251.7 243.4 254.1"></polygon>
                <polygon id="jamaica_1_" points="238.4 277.4 234.9 278.3 234.9 279.3 236.9 280.5 239 280.5 240.4 278.9 238.4 277.4"></polygon>
                <polygon id="irian_jaya_1_" points="831.4 337.2 827.2 337.7 824.5 339.7 825.6 341.9 830.1 342.7 830.1 343.5 827.2 345.8 828.6 350.7 830 350.8 831.2 346 833.4 346 834.3 350.7 845.1 359.7 845.4 366.7 849.1 370.7 850.8 370.6 851.2 345.9 844.9 341.5 839 345.5 836.9 346.8 833.4 344.6 833.3 337.5 831.4 337.2"></polygon>
                <polygon id="alaska-westcopy_1_" points="92.5 42.7 84.1 44.7 85.8 54.1 94.9 56.6 95.4 58.6 81.8 62.8 74.1 75.5 77 89 81.4 92 84.9 88.8 85.9 90.8 81.7 95.8 65.4 103.3 55 105.7 54.8 109.4 78.7 102.4 88.6 99.7 97.7 88.5 107.8 81.8 102.6 90.5 108.3 91.3 117.9 87.1 119.6 94.1 126.3 95.6 133.2 102.3 133.7 107.3 132.7 108.5 133.9 113.2 135.6 113.2 135.8 105.2 137.8 105.2 138.3 124.8 143.2 120.6 139.7 100.2 134.5 100.2 128.8 93 156.7 45.8 129.1 24.2 98.3 30.2 97.1 39.6 103.8 43.6 101.3 50.1 92.5 42.7"></polygon>
                <polygon id="banks_1_" points="203.2 33.7 203.4 37.7 195.4 46 197.4 52.7 203.2 51.1 206.5 46.2 214.9 43.1 221.8 42.6 216.5 36.8 213.8 38.8 211.8 38.1 210.7 35.6 208.3 33.1 203.2 33.7"></polygon>
                <polygon id="prince_patrick_1_" points="213.6 21.9 211.8 25 220.4 28.1 223.5 23.4 224.8 26.5 227 26.5 231.2 21.8 226.1 20.5 224.1 18.9 221.4 21.6 213.6 21.9"></polygon>
                <polygon id="eglinton_1_" points="228.7 28.2 221.8 31.1 221.8 33.3 230.7 36.6 228.7 38.8 230 41.7 235.5 39.2 240.2 39.2 242.4 42.8 246.2 39 245.3 35.4 242.2 36.5 241.8 32 243.4 29.3 241.8 29.3 239.4 30.9 238.3 31.8 239 34.9 237.2 36.2 234.5 36 233.8 32 228.7 28.2"></polygon>
                <polygon id="mackenzie_king_1_" points="237.8 21.2 237.1 23.4 241.3 25.4 244.4 23.6 244.2 22.3 237.8 21.2"></polygon>
                <polygon id="king_christian_1_" points="241.1 17.4 238 18.5 238.2 20.1 245.1 19.6 244.9 18 241.1 17.4"></polygon>
                <polygon id="ellef_ringnes_1_" points="255.9 21.2 255.5 22.8 254.4 24.4 254.4 26.6 258.6 25.9 263 29.7 264.5 29.7 264.5 25.9 260.1 21 255.9 21.2"></polygon>
                <polygon id="amund_ringnes_1_" points="267.2 25.7 269 27.7 267.5 30.4 268.6 33.3 273.5 30.6 273.5 28.6 270.6 25.3 267.2 25.7"></polygon>
                <polygon id="axel_heiberg_1_" points="273.7 20.6 273.9 24.2 279.9 24.2 281.4 25.5 281.2 27.1 275.9 27.8 279.7 32.9 284.8 33.8 291.9 30.7 281.7 15.3 278.6 17.3 278.8 20 275.3 18.7 273.7 20.6"></polygon>
                <polygon id="victoria_1_" points="222 45.8 213.6 48 208.7 52.2 209.1 56.9 218 59.6 216 64.1 209.6 60.1 207.8 63.4 212 66.3 211.8 71 218.2 72.8 226 72.4 227.3 69.9 233.1 76.4 237.1 75.1 237.8 70.6 240.7 72.6 241.1 68.1 237.5 65.9 237.7 51.8 234.6 49.3 231.3 53.8 222 45.8"></polygon>
                <polygon id="prince_of_wales_1_" points="249.1 55.6 246.2 54.3 244.6 56.3 247.7 61.2 247.9 65.9 254.5 61.9 254.5 56.1 256.9 53.6 254.5 51.8 250.5 51.8 249.1 55.6"></polygon>
                <polygon id="prescott_1_" points="263.3 53.6 258.6 57.4 259.7 62.1 262.6 62.1 263.9 59.6 265.9 61.6 267.9 61.4 273.2 56.9 263.3 53.6"></polygon>
                <polygon id="cornwallis_1_" points="262.8 46.3 261.7 48.5 266.6 50.3 267.9 48.3 262.8 46.3"></polygon>
                <polygon id="bathurst_1_" points="259.9 37.8 255 38.5 252.1 41.2 257.4 41.4 255.9 45.4 257 47.2 258.5 47 262.3 41 259.9 37.8"></polygon>
                <polygon id="devon_1_" points="268.4 36.2 265.7 37.1 266.1 40.7 270.5 43.6 270.7 45.8 269.4 47.1 270.1 51.6 287.2 57.2 291.9 58.8 296.6 54.8 291.1 50.3 286 51.6 278.9 50.9 276.2 48.2 275.5 40.8 271.1 38.6 268.4 36.2"></polygon>
                <polygon id="baffin_1_" points="282.3 59.4 277.4 58.9 271.6 61.1 268.5 65.3 269.4 76.9 278.9 77.3 288 81.8 294.4 89.2 299.3 89 298 95.9 293.6 103.3 288.7 105.5 285.2 104.8 283.4 103.2 280.7 106.8 281.8 110.4 285.6 110.6 290.3 108.4 294.3 118.7 304.3 125.2 311.2 116.5 305.4 107.1 308.7 103.3 313.4 111.1 321.8 103.7 320.3 100.3 314.5 102.1 310.5 91.2 314.3 85 306.8 77 302.6 79.9 298.6 71.2 290.2 72.3 288 61.8 281.1 66.5 280.4 72.3 276.6 72.3 277 67.2 282.3 59.4"></polygon>
                <polygon id="bylot_1_" points="292.3 63.5 290.5 65.3 292 67.8 299.3 68.7 294.6 63.8 292.3 63.5"></polygon>
                <polygon id="ellesmere_1_" points="285.2 38.2 285.2 40.2 280.3 41.3 281.6 43.5 287.1 45.7 293.3 46.4 297.7 49.5 302.1 47 299 43.9 303 43.9 305.4 41.2 311.4 40.3 311.4 39 308.1 36.8 308.5 34.3 318 36 331.8 30.6 326.7 29 328 27.2 338.6 27.2 340.4 25.4 318.9 17.8 313.8 16 308.3 20 302 15 298.7 14.8 298 19 293.8 15.2 288.9 16.8 289.8 19.3 297.1 20.9 296.7 24.5 300.7 27 310.5 24.5 310.7 27.8 302.7 31.6 297.8 27.8 293.4 28.3 297.8 34.6 295.6 35.7 292.3 32.8 289.9 34.4 292.1 38.6 295.9 38.6 295 42.6 291.9 42.1 287.9 37.9 285.2 38.2"></polygon>
                <polygon id="southhampton_1_" points="265.4 99.7 261.2 105 260.9 110.9 264.6 108.8 269.1 108.8 272.3 111.7 275.2 109.3 265.4 99.7"></polygon>
                <polygon id="newfoundland_1_" points="317 168.9 306.4 179 307.5 181.4 320.4 186.2 322.3 183 321.2 177.7 317 178.2 314.6 175.5 318.6 171.5 317 168.9"></polygon>
                <polygon id="canada_1_" points="157.7 46.5 159.7 49.5 160.7 53.5 165.7 54.7 169.2 50.9 172.2 52.4 180.7 53.2 186.7 50.7 187.7 59 191.2 59 191.2 55.5 194.7 55.7 203.4 66 209.1 69.5 206.1 74.3 207.3 75.5 218.5 77.8 218.7 82.8 221.7 83.3 222.5 75.8 227.2 74.6 230.7 79.9 238.2 83.4 241.9 84.2 244.4 81.2 244.6 76.4 249.1 73.6 250.6 77.6 246.6 84.6 247.1 88.1 249.3 84.6 253.8 80.6 254 75.3 251.5 71.3 252.3 68 258.3 65 261 67 261.5 84.6 265.7 80.8 268.2 82.3 264.7 88.3 269.2 89.3 275.7 79.3 281.2 85.1 279 95.4 273.5 98.4 268.3 95.9 258.8 97.9 259.8 101.2 257.3 105.2 249.6 107 240.9 113.8 233.2 124.1 232.2 127.4 237.4 129.4 239.4 134.4 246.6 141.7 258.1 146.7 255.6 158.2 255.4 161.5 258.4 163.5 262.4 158.2 262.9 148.2 269.1 148 272.1 142.2 272.6 133.4 280.6 117.8 290.6 121.3 295.8 128.6 293.6 135.9 297.6 138.2 307.3 131.7 310 149.5 319 160.3 319.2 165.8 309.2 168.3 304.5 173.3 294.5 171 289.5 170.8 280.8 177.6 286 176.4 292.5 175.2 293.7 176.7 292 182.2 292.2 187.2 295.2 189.2 298.2 188.4 299.7 186.1 301.7 186.1 298.5 192.1 292.3 192.3 289.6 196.3 286 196.3 285 193.3 290 188.3 284 190.3 283.7 181.8 282 180.8 276.8 183.1 276.3 187.4 264.3 187.4 254.1 194.4 240.4 198.9 238.9 196.9 245.8 186.6 241.9 182.8 239.4 178 234.3 174.1 228.9 173.7 219.1 166.9 148.4 155.3 147.2 150.5 140.7 144.5 140.7 139.5 141.7 135 141.2 132.5 138.7 130 138.2 126 144.7 121.5 140.7 99.9 135.2 99.7 130.2 93.2 157.7 46.5"></polygon>
                <polygon id="usa_1_" points="148.2 156.2 147.2 160.2 143.7 157.9 142 157.9 141 162.2 128.8 189.6 132 213.4 136 215.4 136.8 221.9 145 221.9 153 227.9 168.7 229.4 170.4 237.4 172.9 239.2 176.4 235.7 179.1 236.9 181.6 248.4 185.8 251.2 189.3 244.7 200 237 207 240.3 213 240.8 213.2 237 225.6 237.2 228.1 240 228.6 246.3 227.1 249.8 228.8 255.8 232.5 255.8 236.2 250 234.7 247.2 233.2 241.2 235.4 234.4 245.6 225.6 253.3 223.3 252.3 216 263 204.4 273.7 202.6 272 196.6 282.5 190.6 282.5 182.6 281.5 182.1 277.8 183.3 277.3 188.2 264.9 188.3 255.2 194.8 239.9 199.8 237.5 196.8 244.4 186.3 241 183 238.7 178.6 233.9 174.7 228.7 174.3 218.8 167.5 148.2 156.2"></polygon>
                <polygon id="haida_gwaii_1_" points="133.3 126.3 131.6 129.6 132.2 131.9 133.3 132.6 133 133.5 131.8 133.8 132.1 137.2 133.4 138.5 134.4 137.4 133.1 134.1 133.9 131.4 135.8 128.9 134.4 126.6 133.3 126.3"></polygon>
                <polygon id="vancouver_1_" points="138.9 145.8 137.4 146.4 140.2 149.7 140.9 153.6 143.7 156.6 146.1 156.2 146.1 152.3 143.2 150.5 138.9 145.8"></polygon>
                <polygon id="guatemala_1_" points="194.3 289.4 200.2 293.7 206.2 286.3 205.2 284.8 203.2 284.7 203.2 280.3 201.7 279.4 197.1 280.8 198.9 284.9 194.3 289.4"></polygon>
                <polygon id="honduras_1_" points="207 286.6 216.2 286.2 218.9 289.5 217.2 289.1 213.9 289.2 209.6 293.2 207.8 297.3 206.6 296.7 206.6 292.2 203.9 290.4 207 286.6"></polygon>
                <polygon id="el_salvador_1_" points="201.1 294.1 205.8 296.4 205.7 292.7 203.3 291.2 201.1 294.1"></polygon>
                <polygon id="nicaragua_1_" points="217.2 290 219.4 290.4 219.5 294.9 216.9 302.2 210 301.5 208.5 298 210.5 293.7 214.4 290.1 217.2 290"></polygon>
                <polygon id="costa_rica_1_" points="216.8 302.8 218.2 305.5 219.3 307 217.8 311.5 214.9 309.5 210.2 305.2 210.2 302.3 216.8 302.8"></polygon>
                <polygon id="panama_1_" points="220 307.5 218.5 312.1 223.3 313.3 226.3 313.9 226.8 310.4 230 308.8 232.9 310.3 234 312.1 235.4 311.9 236.5 308.7 232.9 307.2 230.2 305.7 227.5 307.5 224.3 309.1 221 307.8 220 307.5"></polygon>
                <polygon id="colombia_1_" points="253.2 297.6 251.1 297.4 237.5 308.6 236.1 312.6 234.2 312.8 235 321.5 230.2 333.1 235.4 337.5 242 337.9 246.5 344.6 253.1 344.8 252.9 349.8 255.4 349.8 258.1 340.7 255.6 337.6 256.2 331.8 261.4 331.4 260.8 317.9 249.2 314.2 246.5 306.9 253.2 297.6"></polygon>
                <polygon id="venezuela_1_" points="249.9 303.8 250.3 306.4 253.5 307.4 254.2 302.6 257.6 299.1 261 303.1 268.9 305.2 275.6 303.8 280.1 309.4 283.5 311.5 279.7 317.2 281 321.5 278.9 324.2 276.7 326.1 271.9 323.7 270.8 324.8 270.8 328.3 274.3 330 271.7 332.8 269.1 335.6 265.7 335.3 262.2 331.5 261.5 317.2 249.7 313.2 247.6 306.9 249.9 303.8"></polygon>
                <polygon id="guyana_1_" points="284.5 312 291.7 318.5 288.8 321.8 288.6 323.8 292.4 327.7 292.3 331.4 285.7 333.9 281.8 328.6 282.6 322.2 280.9 317.4 284.5 312"></polygon>
                <polygon id="suriname_1_" points="292.6 319 294.6 320.9 297.8 318.9 300.7 319 300.3 320.1 299.1 322.6 298.9 328.9 293.1 331.2 293.4 327.2 289.7 323.7 289.9 321.9 292.6 319"></polygon>
                <polygon id="guyane_1_" points="301.6 319.7 307.5 323.3 304.4 329.4 303.3 330.8 300.1 328.9 300.2 322.4 301.6 319.7"></polygon>
                <polygon id="ecuador_1_" points="229.6 333.7 224.9 336.6 224.6 341 223.7 342.4 226.7 345.3 225.4 346.7 225.7 350.3 231 351.6 239.1 342.1 239.1 338.8 235.2 338.6 229.6 333.7"></polygon>
                <polygon id="peru_1_" points="224.5 347.4 222.6 349.4 222.7 352.5 239.6 383.4 257.2 394.7 259.9 390.1 260.5 380.1 259.1 373.9 254.3 365.8 251.4 366.7 250.1 368.1 244.4 361.6 245.8 353.9 252.4 349.6 251.9 345.6 245.2 345.3 241.7 339.4 239.8 338.8 239.9 342.3 231.2 352.6 224.7 351 224.5 347.4"></polygon>
                <polygon id="bolivia_1_" points="258.1 370.6 266.3 367 269 367.3 270.8 374.9 283.3 379.1 285.4 385.5 290.6 386.1 292.8 391.6 291.3 396.6 282.9 397.2 279.8 405.2 273.2 405.1 271.1 404.7 267.3 408.4 265.4 408.2 258.9 393.2 260.7 390.5 261.3 379.9 259.7 373.6 258.1 370.6"></polygon>
                <polygon id="paraguay_1_" points="291.2 397.4 293.4 399.8 293.1 404.9 299.4 404.5 304.2 410.6 303.8 416.1 300.7 420.8 294.4 421.1 294.1 418.5 295.9 414.2 289.7 410.3 284.5 410.3 280.6 406.1 283.4 398 291.2 397.4"></polygon>
                <polygon id="uruguay_1_" points="299.8 429.8 297.8 432 298.7 443.8 305.1 445.7 313.3 437.5 299.8 429.8"></polygon>
                <polygon id="argentina_1_" points="304.9 416.1 306.8 417.9 299.4 428.9 296.8 431.8 297.7 444.3 303.4 451.2 298.6 459.5 295 461.1 290.9 461.1 292.1 467.6 285.6 469.8 287.1 475.3 283.2 487.7 288 491.6 285.4 498 281 504.9 283.3 509.7 277.6 510.6 272.9 504.9 272.1 487 264.9 456.7 267.1 446.1 262.4 432.6 265.5 415 268.4 411.6 267.7 409 271.4 405.7 279.6 406.3 284.2 411.2 289.5 411.3 294.9 414.6 293.3 418.3 293.7 422.1 301.3 421.7 304.9 416.1"></polygon>
                <polygon id="tierra_del_fuego_chile_1_" points="284.5 512 280.2 521.4 287.6 522.2 287.7 516 284.5 512"></polygon>
                <polygon id="tierra_del_fuego_argentina_1_" points="288.4 516.6 288.7 522.3 293.1 521.9 296.9 519.4 290.6 518.1 288.4 516.6"></polygon>
                <polygon id="chile_1_" points="283 510.5 279.8 514 279.4 518.2 273.2 514.7 266.6 505.2 264.7 501.8 267.4 498.3 267.1 493.9 264 492.6 261.5 490.8 262 488.3 265.2 487.4 266 473 261 470.1 257.7 395.5 258.6 394 265 408.9 267.1 408.9 267.8 411.3 265.1 414.6 262 432.5 266.5 446.3 264.4 456.7 271.7 487.3 272.5 505.2 277.7 511.2 283 510.5"></polygon>
                <polygon id="chiloe_1_" points="261.7 473 260.4 475 261 478.4 262.3 478.5 262.9 474.2 261.7 473"></polygon>
                <polygon id="brazil_1_" points="313.7 436.7 319.9 424.7 320.1 414.6 331.8 407.1 338.3 407.1 343.4 398.4 344.3 381.7 342.2 377.2 354.6 365.9 355.1 353.4 338.3 345.2 318 338.9 308.4 338 311 332.6 310.3 324.4 308.2 323.7 305.1 329.8 303.5 331.8 299.3 330 285.3 334.9 280.6 329 281.4 322.9 277 327.4 272.1 324.8 271.6 325.5 271.6 327.6 275.8 329.8 269.5 336.4 265.5 336.4 261.5 332.3 257 332.4 256.4 337.3 259 340.5 255.9 350.4 252.3 350.7 246.6 354.3 245.2 361.4 250.2 366.7 251.1 365.7 254.6 364.8 257.6 369.8 266.1 366.1 269.4 366.3 271.7 374.4 283.9 378.3 286 384.7 291.2 385.3 293.7 391.4 292 396.9 294.2 399.8 293.9 404.1 299.7 403.6 305.1 410.4 304.7 415.2 307.9 417.9 300.3 429.4 313.7 436.7"></polygon>
                <polygon id="belize_1_" points="204 280.3 203.9 283.9 204.7 283.9 207.6 278.6 205.7 278.6 204 280.3"></polygon>
                <polygon id="russia_1_" points="817.4 70.8 819.2 76.9 822.7 77.9 826.2 72.3 824.2 68.5 825 65.2 830.3 65.2 829 67.7 829.5 76.8 822 95.5 822.8 99.6 822.6 106.4 836.7 126.9 839.5 127.7 839.7 111 842.5 108.5 839.5 101.9 842 99.1 836.5 91.8 833.5 92 832.5 79.8 840.3 77.8 840.8 74.2 844.8 73.2 847.1 75.2 849.9 64.1 854.7 56 858.5 54 861.8 54.2 861.8 50.4 856.5 49.4 849.2 43.3 852.7 39.3 849.7 32.5 852.2 30 855.2 34.1 862.7 36.9 871 37.7 872 34.2 867.7 29.9 872.5 23.3 861.7 19.5 858.9 25.1 855.4 20.5 835.6 13.7 816.8 17 814 18.5 814 20 818 22 817.5 26.8 810.2 23.8 793.7 30 790.9 24.2 779.8 24.2 774.8 29.5 757 25.5 740.7 28.8 738.7 33.9 741.2 34.7 741 38.5 725.2 40.3 726.2 45.4 711.6 42.9 715.1 36.3 700.3 35.5 701.6 42.3 696.8 44.6 692.8 40.8 676.5 43.6 670.2 49.4 670 52.9 666 53.1 665.5 49 678.3 37.9 678.3 30.3 670 28 659.2 31.5 654.7 26.9 652.7 26.9 650 32 652 34.3 637.7 42.1 625.4 51.5 617.9 61.9 617.9 66.2 625.9 69.5 621.9 72.5 613.4 69.5 609.9 72.5 604.6 66.4 603.6 68.7 609.4 86.9 610.9 87.4 614.9 85.4 616.9 86.9 616.9 90.2 613.1 88.7 610.8 90.5 612.3 93.8 611 102.4 603.2 103.2 602.7 100.4 607.2 97.6 608.2 90 603.2 83.4 601.4 72 593.4 70.7 592.6 74.8 594.1 76.8 590.8 79.6 592.1 87.2 596.9 89.2 597.9 94.8 593.1 91.8 580.8 89.5 579.3 93.6 569.5 97.1 568 94.6 555.2 101.7 555 106.5 550 107.3 551.5 103.8 551.5 100.3 546.5 98.5 543.2 99.8 546 105.1 548 108.6 548 111.4 544.2 110.6 543.4 109.8 539.6 113.9 541.6 117.4 533.1 117.2 535.9 120.8 535.1 122.3 530.6 122.3 527.3 120 526.5 113.7 521.2 111.7 521.2 109 532.3 111.3 538.3 111.8 540.8 108 538.5 103.9 522.4 97.6 516.9 99 515 100.6 515.6 104.4 518 104.8 517.5 110.7 524.8 127.8 519.5 136.1 519.1 138 521.8 139.9 519.4 141.5 517.8 141.5 518.1 148.9 520.3 152 520.3 155 523.1 155.3 527.4 156.9 532 163.2 532 164.9 530.5 167.5 533.9 167.3 537.2 168.3 541.7 174.7 552.8 175.7 552.3 183.3 548.5 186.6 549.3 187.9 545.5 192 544.5 195.8 546.8 199.1 554.1 201.6 557.1 199.8 576.4 207.1 577.2 205.1 573.2 201.3 573.2 196.5 570.7 195.7 571.2 191.6 575.2 186.8 568 181.4 568.5 173.9 576.2 168.8 585.2 169.3 586.7 172.1 596 172.6 602.8 168.8 599.3 165 600.1 157.9 617.7 149.3 631.2 155.4 635.7 151.3 649 164 659 163 662.5 166.5 672 167.5 678.3 158.9 686.3 162.5 690.6 163.3 694.9 159.5 691.1 157 694.4 151.9 703.7 154.9 705.7 159 709.7 159.2 712.2 157.4 719 157.2 719.8 159 727.6 159.5 732.9 153.9 743.7 155.2 747 153.9 748 147.8 744.7 140.5 748 137.7 758.3 137.7 768.1 149.3 780.7 156.4 784.5 156.4 785 153.4 789.5 150.6 790 167.1 786 167.3 786 171.4 788.3 174.2 787.9 177.8 789.6 178.5 790.6 176 792.1 176.5 793.1 177.5 797.6 176.5 802.1 163.3 802.6 146.8 796.8 133.6 789.5 124.7 786 125.2 786 128 777.5 124.7 780.8 117.6 783.6 98.9 795.2 95.4 800.7 91.9 806.7 91.9 805.2 93.9 806.7 96.4 812 90.8 815 91 814.5 87.7 809.7 86.7 813 74.8 817.4 70.8"></polygon>
                <polygon id="china_1_" points="669.8 167.9 666.3 176.6 661.5 176.4 656.5 187.4 660.8 192.8 652 205 647.5 204.2 644.5 208 645.3 210.3 648.8 210.5 650.6 214.5 654.1 215.3 664.9 229.2 664.9 236.3 670.2 239.6 676 238.6 683.3 242.9 692.1 245.4 696.4 244.9 701.2 244.4 711.2 237.8 714.5 238.3 715.7 241.3 718.5 242.1 722.3 247.7 719.8 253.3 721.3 257.1 725.6 258.6 726.4 263.2 731.4 263.7 732.2 261.4 739.5 257.6 744 257.8 749.3 263.6 752.8 262.1 755.1 262.3 756.1 265.1 757.9 265.3 760.4 261.8 770.4 258 779.4 247.1 782.4 236.7 782 230 778.2 229.2 780.5 226.7 780 222.6 770.5 213 770.5 208.2 773.3 204.7 776.1 203.4 776.3 200.6 769.3 200.6 768 204.4 764.7 203.6 760.7 199.3 763.2 192.7 766.7 188.9 770 189.1 769.5 194.9 771.3 196.4 775.6 192.1 777.1 191.9 776.6 188.6 780.6 183.8 783.6 184 785.4 178.4 787.5 177.3 787.7 173.8 785.7 171.7 785.5 166.2 789.3 166 789.1 151.9 786.4 153.5 785.4 157.1 780.9 157.1 767.8 149.7 758.4 138.3 748.8 138.2 746.4 140.3 749.5 147.4 748.4 154.1 744.5 155.7 742.3 155.5 742.1 162.1 744.4 162.6 748.4 160.8 753.7 163.3 753.7 165.8 749.9 166 746.9 172.6 744.1 172.8 734.3 185.7 724 190.3 717 190.8 712.2 187.5 705.4 191.1 698.1 188.8 696.3 184 684 183.2 677.5 172.6 674.7 172.6 672.5 167.7"></polygon>
                <polygon id="mongolia_1_" points="673.2 168 679 160.3 686 163.5 690.8 164.8 696.6 159.5 692.6 156.6 695.2 152.9 703 155.6 705.7 160 710.6 160.1 713.1 158.2 718.3 158 719.4 159.9 728.1 160.3 733.6 154.7 741.2 155.5 740.8 163.1 744.1 163.9 748.2 162 752.5 164.1 752.4 165.2 749.3 165.3 746 172.2 743.5 172.4 733.6 185.3 723.5 189.7 717.2 190.2 712 186.8 705.3 190.4 698.7 188.3 696.8 183.5 684.3 182.6 677.9 171.7 674.8 171.5 673.2 168"></polygon>
                <polygon id="north_korea_1_" points="777.7 192.1 779.5 192.9 780.1 199.3 783.8 199.5 787.2 195.5 786 194.4 786.1 190.1 789.3 186.3 787.7 183.4 788.7 182.2 789.3 179.2 787.5 178.4 785.9 179.2 784 185 780.9 184.7 777.3 189 777.7 192.1"></polygon>
                <polygon id="south_korea_1_" points="787.8 196.1 794 201.1 795 206 794.8 208.6 791.8 212 789.2 212.1 786.2 205.7 785.1 202.7 786.3 201.8 786 200.5 784.5 199.8 787.8 196.1"></polygon>
                <polygon id="kazakhstan_1_" points="576.1 186.5 580.2 184.7 584.8 184.5 585.1 191.5 582.4 191.5 580.4 194.8 583.1 199.2 587.1 201.4 587.5 204 589 203.5 590.3 201.9 592.5 202.4 593.6 204.6 596.4 204.6 596.4 201.7 594.7 196.6 593.9 192.5 598.9 190.3 605.7 191.4 610 195.7 619.6 194.8 625 202.4 631.3 202.7 633 199.8 635.2 199.3 635.5 196.1 638.8 195.9 640.5 198 642.2 193.9 657.2 196 659.7 192.7 655.4 187.5 661.1 175.1 665.7 175.4 668.9 167.8 662.6 167.2 659 163.7 649 164.9 636.1 152.5 631.6 156.5 617.8 150.3 600.9 158.6 600.4 164.5 604.4 169.1 596.7 173.5 586.7 173.3 584.6 170.2 576.8 169.8 569.4 174.6 569.2 181.1 576.1 186.5"></polygon>
                <polygon id="turkmenistan_1_" points="593.3 205.4 592.7 208 588.5 208 588.5 211.6 593 214.5 591.6 218.5 591.6 220.4 593.4 220.7 595.9 217.5 601.4 216.3 613.2 220.8 613.4 224 620 224.6 627.4 216.8 626.5 214.3 621.6 213.2 607.8 204.2 607.2 201 602 201 599.7 205.3 597.4 205.3 593.3 205.4"></polygon>
                <polygon id="uzbekistan_1_" points="628.4 216.9 631.5 217.1 631.5 211.8 628.6 210.1 633.5 203.9 635.5 203.9 637.5 206.2 642.7 204.2 635.5 201.7 635.2 200.2 633.5 200.6 631.8 203.5 624.5 203.3 619.2 195.7 609.8 196.6 605.3 192.2 599.1 191.1 594.6 192.9 597.2 201.6 597.2 204.5 599.1 204.5 601.4 200.1 607.6 200.2 608.5 203.6 621.8 212.4 626.9 213.6 628.4 216.9"></polygon>
                <polygon id="tajikistan_1_" points="629.6 209.7 633.7 204.6 635.2 204.6 635.7 205.7 633.8 207.1 633.8 208.2 635 209.1 641 209.5 643 208.7 643.9 208.9 644.5 210.8 648.1 211.2 649.9 215 649.4 216.1 648.7 216.2 648 214.8 646.5 214.7 643.8 215.1 643.6 217.6 640.9 217.4 641 214.2 639 212.3 636 214.8 636.1 216.4 633.5 217.3 632 217.3 632.1 211.7 629.6 209.7"></polygon>
                <polygon id="kirgizstan_1_" points="636.2 197.1 635.9 199.6 636.1 201.2 644.8 204.1 637.2 207.2 636.3 206.5 634.6 207.6 634.7 208.2 635.6 208.6 641 208.7 643.7 207.9 647.2 203.5 651.6 204.3 656.9 197 642.8 195.1 640.8 199.8 638.3 197.2 636.2 197.1"></polygon>
                <polygon id="afghanistan_1_" points="613.6 224.9 615.2 237.4 619.2 238.3 619.6 240.5 616.8 242.9 622.1 247.2 632.4 243.5 633.2 239.1 639.7 235.1 642.2 225.7 644 223.7 642.1 220.4 648.4 216.5 647.6 215.4 644.7 215.6 644.4 218.3 640.5 218.3 640.4 214.8 639.2 213.3 637.1 215.2 637.2 217 634 218.2 628.2 217.8 620.6 225.8 613.6 224.9"></polygon>
                <polygon id="pakistan_1_" points="622.6 247.7 625.2 251.6 625 253.6 621.5 255 621.3 258.2 625.3 258.2 626.7 257.1 634.2 257.1 641 263.1 641.9 260.2 647 260.2 647.1 256.6 641.9 251.6 643 248.9 648.3 248.5 655.5 233.5 651.5 230.4 650 225.2 659.6 224.3 653.9 216.2 650.9 215.4 649.7 216.9 648.8 217 643.1 220.6 645 223.7 642.9 225.9 640.3 235.5 633.9 239.6 633 244.1 622.6 247.7"></polygon>
                <polygon id="india_1_" points="670.4 310.9 675 308.7 677.7 298.9 677.6 286.8 693.2 270 693.2 266 696.4 264.8 696.3 260.2 692.8 253.5 694.8 249.9 699.1 253.9 704.7 254.2 704.7 256.4 703 258.3 703.4 259.3 706.4 259.4 707 262.8 707.9 262.8 710.1 258.8 711.2 248.3 714.9 245.7 715 242.1 713.5 239.2 711.2 239.1 702 245.2 702.6 249.1 696.1 249.1 693.8 246.3 692.6 246.5 693 250.4 679 249.4 670.3 245.5 669.8 240.7 664 237.1 663.9 229.7 659.9 225.2 650.8 226.1 651.8 230.1 656.3 233.7 648.6 249.5 643.4 249.9 642.6 251.8 647.7 256.5 647.5 261.3 642.3 261.2 641.7 263.6 646 263.4 646.1 265.3 643 266.9 645 270.6 648.8 271.8 651.1 270.1 652.2 267 653.6 266.4 655.2 268 654.7 272 653.6 273.9 653.8 277.1 670.4 310.9"></polygon>
                <polygon id="nepal_1_" points="670.6 240.4 671.1 244.7 679.2 248.4 692.2 249.4 691.7 246.3 683 243.9 675.7 239.5 670.6 240.4"></polygon>
                <polygon id="bhutan_1_" points="694.8 245.9 696.3 248 701.5 248 701 245.1 694.8 245.9"></polygon>
                <polygon id="bangladesh_1_" points="695 251 693.7 253.4 697.1 259.9 697.2 264.9 697.8 266.3 701.8 266.4 704.1 264.2 705.7 265.2 706 268.3 707.3 267.5 707.4 263.6 706.3 263.5 705.6 260.2 702.8 260.1 702.1 258.2 703.8 255.9 703.8 254.8 699 254.8 695 251"></polygon>
                <polygon id="burma_1_" points="728.9 301.5 726.1 297.1 728.1 294.3 726.2 290.8 724.4 290.5 724.1 284.6 721.4 279.4 720.6 280.6 718.8 283.6 716.6 283.9 715.5 282.4 714.9 278.4 713.2 275.2 706.4 268.7 708.1 267.6 708.4 262.9 710.9 258.7 712 248.2 715.6 245.7 715.7 241.9 717.9 242.6 721.3 247.6 718.8 253 720.5 257.3 724.7 259 725.5 263.6 731.2 264.5 729.6 267.2 722.4 270 721.6 274.6 726.9 281.4 727.1 285 725.9 286.2 726 287.3 729.9 293.1 730 299.1 728.9 301.5"></polygon>
                <polygon id="thailand_1_" points="729.5 268.3 732.7 272.5 732.7 277.6 733.8 278.2 739 275.7 740 276 746.2 283.1 746 288 744 287.7 742.2 286.6 740.9 286.7 738.6 290.6 739.1 292.7 741 293.7 740.9 296.1 739.6 296.8 735 293.6 735 290.8 733.1 290.7 732.3 291.9 731.9 304.5 734.9 309.9 740.2 315 740 316.5 737.2 316.4 734.6 312.6 731.9 312.6 728.5 309.9 727.5 307.1 729 304.7 729.5 302.6 731.1 299.8 731 293.4 727.1 287.8 726.9 287.1 728.1 285.8 727.8 281.4 722.7 274.9 723.3 271.1 729.5 268.3"></polygon>
                <polygon id="malaysia_1_" points="732.1 313.3 734.1 317.8 734.6 323.7 737.3 327.9 743.8 331.8 746.3 332 745.8 327.9 743.7 322.7 740.6 316.1 740.3 317.3 736.5 317.1 733.8 313.2 732.1 313.3"></polygon>
                <polygon id="cambodia_1_" points="739.9 297.3 744 301.7 751.6 296.1 752.3 287.2 748.4 289.9 746.4 288.8 743.6 288.4 742.1 287.3 741.3 287.3 739.3 290.6 739.6 292.1 741.7 293.2 741.5 296.3 739.9 297.3"></polygon>
                <polygon id="laos_1_" points="734.9 260.8 732.5 262 730.5 267.9 733.9 272.2 733.3 276.9 733.9 277.1 739.5 274.4 747 282.8 746.8 288.1 748.4 289 752.4 285.7 752.1 283.1 740.5 272.1 740.6 270.4 742.1 269.4 741.1 266.6 736.3 265.8 734.9 260.8"></polygon>
                <polygon id="vietnam_1_" points="744.5 302.3 745.7 304.2 745.9 306.3 749 306.6 752.8 301.5 756.4 300.5 758.3 295.3 757.4 287 753.7 281.9 749.8 278.8 744.8 270.3 748.3 264.4 743.2 258.6 739.1 258.4 735.4 260.4 736.5 265.1 741.4 266 742.7 269.6 741 270.7 741.1 271.6 752.6 282.8 753.1 286.1 752.4 296.5 744.5 302.3"></polygon>
                <polygon id="georgia_1_" points="554.9 202 558.2 206.3 562.3 208.2 564.8 208.2 569.1 207 570.2 205.3 557.4 200.5 554.9 202"></polygon>
                <polygon id="armenia_1_" points="569.2 207.7 574 214 572.6 215.6 569.2 215 565 211.2 565.2 208.7 569.2 207.7"></polygon>
                <polygon id="azerbaijan_1_" points="570.8 205.6 569.8 207.3 574.5 213.5 576.1 213 578.8 215.8 580 210.8 582.9 211.3 582.8 209.9 578 205.7 577.1 208.2 570.8 205.6"></polygon>
                <polygon id="iran_1_" points="569.1 215.8 567.9 217.1 568 219.1 569.5 221.2 574.9 227.1 574.1 229.5 573.2 229.5 572.7 231.9 575.7 235.8 578.5 236 584.1 243.8 587.3 244 589.8 245.8 589.9 249.3 599.6 255 603.2 255 605.4 253.1 608.2 253 609.8 256.8 620.3 258.3 620.6 254.4 624.1 253.1 624.3 251.7 621.5 247.9 615.3 242.9 618.5 239.9 618.3 238.6 614.2 238 612.5 224.3 612.3 221.2 601.3 217 596.4 218.1 593.7 221.5 591.3 221.3 590.6 221.9 585.2 221.5 578.4 216.5 575.9 213.7 574.7 214 572.6 216.4 569.1 215.8"></polygon>
                <polygon id="turkey_1_" points="558.1 207 555.9 209.4 547.7 209.2 542.8 206.3 538 206.2 532.5 210.1 527.3 210.3 526.8 213.2 521 213.2 518.7 215.3 518.7 216.5 520.1 217.7 520.1 219 519.5 220.5 520.1 221.8 522 220.9 523.9 222.9 523.4 224.3 522.7 225.2 523.7 226.4 528.9 227.5 532.5 226 532.5 223.8 534.3 224.2 538.5 226.7 543.1 226 545.1 224.1 546.4 224.6 546.4 226.7 548.2 226.7 549.7 223.7 563.1 222.3 568.9 221.6 567.4 219.6 567.4 216.9 568.6 215.5 564.3 212.1 564.5 209.2 562 209.2 558.1 207"></polygon>
                <polygon id="yemen_1_" points="571.4 287.1 572.8 291.4 572.8 295.6 576.3 298.7 600.7 288.8 600.9 286.1 597 279.1 587.2 282.2 581.6 287.7 575.1 283.8 571.4 287.1"></polygon>
                <polygon id="oman_1_" points="597.8 278.7 605.2 274.4 606.5 268.2 604.9 267.3 605.6 260.6 607 259.8 608.5 262.2 617.5 266.9 617.5 269.5 606.6 285.5 601.6 285.7 597.8 278.7"></polygon>
                <polygon id="emirates_1_" points="593.4 262.8 594.3 266.3 604.2 267.2 604.9 260.1 606.8 259.1 607.3 256.5 604.2 257.4 600.7 262.6 593.4 262.8"></polygon>
                <polygon id="qatar_1_" points="592.1 256.9 591.6 260.9 593.1 262.1 594.5 262 595 257 593.8 256.1 592.1 256.9"></polygon>
                <polygon id="kuwait_1_" points="582.7 245 580.5 243.8 578.9 245.4 579.1 248.5 582.7 249.9 582.7 245"></polygon>
                <polygon id="saudi_1_" points="583.4 251.1 590.4 260.9 592.7 262.7 593.7 267.1 604.5 268 605.7 268.6 604.5 274 597.4 278.2 587 281.3 581.5 286.7 574.9 282.9 570.9 286.4 565.4 277.3 561.6 275.6 560.2 273.5 560.2 269 546.4 252.3 545.9 249.3 549.9 249.3 554.7 245.1 554.9 243 553.5 241.6 556.3 239.3 562.2 239.7 572.2 248.1 578.1 247.8 578.5 249.3 583.4 251.1"></polygon>
                <polygon id="syria_1_" points="546.1 227 545.8 229.5 548.6 230.7 548.5 237.7 551.3 237.6 554.1 235.5 555.2 235.3 561.6 230.2 562.9 222.8 550.1 224.1 548.8 227.1 546.1 227"></polygon>
                <polygon id="iraq_1_" points="563.7 222.9 562.1 230.6 555.6 236 556 238.5 562.3 238.9 572.3 247.1 577.9 246.9 578.1 245 580.2 242.8 583.1 244.4 583.5 244 577.9 236.6 575.3 236.4 571.8 231.9 572.5 228.6 573.6 228.5 574 227 569.2 222 563.7 222.9"></polygon>
                <polygon id="jordan_1_" points="548.3 238.6 545.8 247.2 545.7 248.5 549.6 248.5 553.9 244.7 554 243.3 552.2 241.5 555.4 238.9 554.9 236.5 554 236.7 551.4 238.6 548.3 238.6"></polygon>
                <polygon id="lebanon_1_" points="545.6 230.3 545.7 232.2 544.9 235.2 547.7 235.4 547.9 231.2 545.6 230.3"></polygon>
                <polygon id="israel_1_" points="544.8 235.9 543.2 240.9 545.2 246.9 547.5 238.1 547.5 236.2 544.8 235.9"></polygon>
                <polygon id="cyprus_1_" points="542.6 227.7 543.8 228.6 540 232.2 538.2 232.1 536.9 231.1 537.1 229.3 539.9 229.1 542.6 227.7"></polygon>
                <polygon id="norway_1_" points="514.9 100 516.9 98.5 516.7 96.8 515.4 96.1 515.6 94.1 516.7 94.1 516.7 93 511.9 91.7 504.8 92.4 504.1 95.5 502.5 95 501.4 93.1 497.9 93.3 497.5 96.8 495.9 97.5 495 95.7 487.7 101.6 489.2 103.3 486.4 104.6 480 117 477.8 118.5 478 119.6 480.2 120.7 479.7 123.1 476 122.9 474.9 121.6 472.5 124.4 471 125.5 470.6 128.1 469.3 128.8 466 129.5 464.4 134.7 465.5 143.2 466.8 147.1 468.3 148.6 471.6 148.4 476.4 143.8 478.2 140.7 478.7 145.3 481.8 139.8 482 124.3 484.5 122.7 485.3 114.1 493 103 496.7 101.7 498.3 99.7 503.8 101 506.6 102.7 507.5 98.1 512.1 95.3 514.9 100"></polygon>
                <polygon id="britain_1_" points="445.6 146.9 443.8 149.7 444.5 150.8 448.7 150.8 448.7 152.7 447.6 154.2 448.3 158.1 450.7 162.7 452.5 166.9 455.4 168 456.7 170.2 456.5 172.2 454.7 173.3 454.5 174.2 455.8 174.9 454.7 176.4 452.1 177.5 447.1 176.9 439.4 180.4 436.8 179.1 444.1 174.9 443.2 174.3 439.3 173.9 441.7 170.4 442.1 167.4 445.2 167 444.7 161.3 441 161.1 439.9 159.8 440.1 155.6 438 156 440.2 148.6 444.2 145.6 445.6 146.9"></polygon>
                <polygon id="ulster_1_" points="437.9 159.3 434.6 159.7 434.4 162.7 436.6 164.2 439 163.6 439.9 161.9 437.9 159.3"></polygon>
                <polygon id="ireland_1_" points="438.9 164.4 438 170.4 429.9 173.4 427.3 173.4 425.5 172.1 425.5 171 429.5 168.4 428.4 166.2 428.6 163.1 432.1 163.3 433.7 159.5 433.5 162.8 436.2 164.9 438.9 164.4"></polygon>
                <polygon id="sweden_1_" points="497.2 102.4 499.2 104.2 502.9 104.2 504.9 108.1 505.4 114.8 500.4 118.3 500.4 121.8 496.9 126.6 494.9 126.8 492.1 131.4 492.3 135.8 497.1 139.3 496.7 141.3 494.9 144.1 492.1 146.5 492.3 154.4 488.1 155.9 486.6 159 484.6 159 483.5 153.5 478.9 146.5 482.7 140.2 483 124.6 485.6 123.2 486.2 114.3 493.6 103.7 497.2 102.4"></polygon>
                <polygon id="finland_1_" points="506.2 114.8 508.3 115.7 509.6 118.1 508.3 119.8 501.9 126.8 500.8 130.5 502.3 135.9 507.3 139.6 513.9 136.5 519.2 135.8 524.2 127.9 520.5 119.2 517 110.9 517.5 105.5 515.3 105.1 514.7 101.2 511.7 96.4 508.4 98.7 507.1 104 503.6 101.9 498.8 100.7 497.7 102 499.6 103.7 503 103.6 505.7 108 506.2 114.8"></polygon>
                <polygon id="path302_1_" points="517.5 149.2 510.7 148.1 510.8 151.9 517.1 155.8 519.7 155 519.5 152.1 517.5 149.2"></polygon>
                <polygon id="hiumaa_1_" points="506.2 145.5 504.7 145.4 503.8 146.3 504.4 147.3 505.9 147.4 506.7 146.2 506.2 145.5"></polygon>
                <polygon id="saaremaa_1_" points="506 149.6 504.5 149.5 501.8 152.7 501.8 154.2 502.7 154.6 504.5 154.7 507.4 152.3 507.8 151.5 506 149.6"></polygon>
                <polygon id="lithuania_1_" points="510.2 152.6 508.1 152.5 505.1 155.3 502.6 155.3 502.7 158.8 501.2 161.6 506.6 161.7 508.1 161.5 509.6 163.4 513.1 163.3 516.5 159 516.3 156.4 510.2 152.6"></polygon>
                <polygon id="belarus_1_" points="510.1 164.1 511.6 166.6 511 168.6 511.1 170.2 511.6 172.1 514.7 170.3 518.5 170.4 521.2 171.5 528 171.5 530 166.7 531.2 164.9 531.2 163.7 526.9 157.6 523.1 156.1 520 155.7 517.3 156.6 517.4 159.3 513.6 164 510.1 164.1"></polygon>
                <polygon id="poland_1_" points="510.9 172.6 511.7 174.2 511.9 175.9 511.2 177.5 509.6 180.6 508.2 181.2 506.4 180.4 505.4 180.5 502.9 181.5 500 180.6 495.3 177.3 490.7 174.8 488.8 172 488.4 165.4 492 162.3 496.7 160.7 498.5 160.5 497.8 161.9 498.3 162.5 506.2 162.6 507.9 162.5 510.7 166.8 510 168.6 510.3 170.7 510.9 172.6"></polygon>
                <polygon id="spain_1_" points="447.8 202.9 435.1 202.9 432.5 201.7 431.3 201.8 429.8 204.9 430.3 208.1 435.2 208.5 435.8 210.6 433.7 222.5 433.8 224.6 437.3 226.5 441.3 226.8 449.3 224.8 453.2 219.9 453.3 214.9 460.2 208.7 460.6 205.9 454.3 205.8 447.8 202.9"></polygon>
                <polygon id="portugal_1_" points="430.4 209.1 429.8 217.7 428 219.3 428.2 220.3 429.4 222.3 428.6 224.8 429.9 225.3 433 224.9 432.8 222.4 434.8 210.8 434.4 209.2 430.4 209.1"></polygon>
                <polygon id="majorca_1_" points="460.5 215.1 458.9 215.6 459.3 217 461.6 217 462.6 215.9 460.5 215.1"></polygon>
                <polygon id="sardinia_1_" points="477 211.2 474.4 212.5 474.8 217.7 476.9 218.1 478.5 216.6 478.5 211.7 477 211.2"></polygon>
                <polygon id="corsica_1_" points="477.3 204.8 475.3 206.8 475.1 208.6 476.7 209.6 477.3 209.5 477.7 206.9 477.3 204.8"></polygon>
                <polygon id="france_1_" points="459.8 176.6 457.6 177.1 453.2 181.9 451.9 182 450.1 180.8 449 181 448.1 183.8 441.6 184 441.8 185.4 446.2 188.3 451.3 192.4 451.2 197.3 448.5 202.1 454.4 205 460.4 205.2 462.3 203.1 466.1 203.2 467.2 204.2 471 203.9 473 201.4 470.5 198.5 470.3 196.6 470.8 194.5 469.6 192.7 467.5 193.3 467.2 191.7 471.9 186.5 471.9 183.4 468.8 181.6 467.2 181.3 459.8 176.6"></polygon>
                <polygon id="netherlands_1_" points="469.5 166.1 465 168.3 466 169.2 466.1 171.4 465.1 171.2 464 169.6 461.5 173.6 465.4 174.4 466.9 175.9 467.7 175.9 468.2 172.4 470.7 171.4 469.5 166.1"></polygon>
                <polygon id="belgium_1_" points="461 174.4 460.4 176 467.3 180.5 469.3 181 469.4 178.9 467.7 177 466.6 177 465.1 175.4 461 174.4"></polygon>
                <polygon id="germany_1_" points="470.6 165.7 474.2 165.1 474.2 162.6 477.2 162.1 478.8 163.7 480.5 163.9 483.2 162.7 485.6 163.4 487.7 165.2 488 172.1 490.1 174.9 487.3 175.3 482.7 178.2 483.1 179.2 487.2 183.1 486.9 185 483 186.9 479.4 187 478.5 188.8 476.7 188.8 475.8 186.9 472.6 186.1 472.5 182.9 469.8 181.1 470.1 178.8 468.3 176.3 468.8 173 471.3 171.8 470.6 165.7"></polygon>
                <polygon id="denmark_1_" points="476.2 149.4 472.1 154 472 157 473.9 161.9 476.9 161.3 476.5 157.3 478.5 155 478.5 153.2 477.1 149.5 476.2 149.4"></polygon>
                <polygon id="sjlland_1_" points="480.9 157.5 480 157.5 478.8 158.6 478.9 160.4 481.8 160.5 481.9 158.5 480.9 157.5"></polygon>
                <polygon id="gotland_1_" points="497.9 148 495.8 149.7 496.9 152.1 498.8 150.3 497.9 148"></polygon>
                <polygon id="switzerland_1_" points="472.3 187.2 467.9 191.8 468 192.3 469.8 191.7 471.4 193.9 474.1 192.9 476 194.4 476.8 194 479.1 190.4 478.5 189.8 476.2 189.7 475.1 187.4 472.3 187.2"></polygon>
                <polygon id="czech_1_" points="487.9 182.7 490.9 182.7 492.4 182.7 494.8 184.4 499.2 180.8 494.9 177.8 490.7 175.8 487.8 176.3 483.9 178.8 487.9 182.7"></polygon>
                <polygon id="slovakia_1_" points="495.3 185 496 185.6 496.1 186.6 503.7 186.4 509.3 184 509.2 181.5 508.1 182 506.6 181.2 505.6 181.2 503.1 182.2 499.7 181.4 495.3 185"></polygon>
                <polygon id="austria_1_" points="480.1 188 479.5 189.4 480.1 190.4 482.4 189.9 484.4 189.9 486.5 191.7 491.1 190.9 494.5 188.9 495.4 187.5 495.3 185.8 492.3 183.5 488.3 183.5 488 185.8 483.7 187.9 480.1 188"></polygon>
                <polygon id="hungary_1_" points="496.2 187.5 495 189.3 495.1 192.1 497 193 502.7 193.2 510.6 186.5 510.6 185 509.7 184.6 504 187.2 496.2 187.5"></polygon>
                <polygon id="slovenia_1_" points="494.2 189.8 491.7 191.3 487 192.3 488 195 491.3 195 494.4 192.4 494.2 189.8"></polygon>
                <polygon id="croatia_1_" points="495.1 193 491.6 195.9 488 195.9 487.6 198.4 489.2 198.8 490 197.6 491.3 198.7 492.3 202.3 499.4 205.6 500.1 204.8 492.9 197.4 493.6 196 500.4 195.7 501.1 193.5 496.7 193.6 495.1 193"></polygon>
                <polygon id="bosnia_1_" points="494.2 196.8 493.8 197.4 500.5 204.3 503 200.7 502.9 199.3 500.7 196.7 494.2 196.8"></polygon>
                <polygon id="italy_1_" points="471.7 194.8 471.1 196.4 471.3 198.1 473.7 200.9 477.5 200.8 485.8 210.4 491 211.9 494.1 214.8 494.8 221.4 496.4 220.4 497.8 216.8 497.4 214.2 499.8 214 500.1 212.5 493.3 209.2 486.8 202.8 484.2 199 483.6 195.4 486.9 194.6 486 192.2 484 190.5 482.2 190.4 479.8 191.1 477.5 194.3 476.1 195.2 474 194 471.7 194.8"></polygon>
                <polygon id="sicily_1_" points="491.9 220.9 490.4 220.1 485.4 220.9 485.6 222.2 490.1 224.4 490.8 225.1 492 225.3 491.9 220.9"></polygon>
                <polygon id="malta_1_" points="492 228.3 490.3 228.6 490.4 230.5 491.9 231 492.6 230.4 492 228.3"></polygon>
                <polygon id="ukraine_1_" points="515 171 512.1 172.6 512.8 175.7 510.1 181.3 510.1 183.8 511.4 184.6 519.5 185 521.8 183.1 524.2 183.9 527.7 188.5 525.2 193.1 528.2 194 532.2 189.4 534.5 189.8 536.6 191.3 534.8 193.7 537.3 197.6 540 197.6 541.4 195 544.2 194.4 544.3 192.3 539.1 191.5 539.3 189.2 544.4 189.2 549.9 184.8 552.3 182.7 552.7 176 541.9 175 537.5 168.8 534.4 167.7 530.7 167.9 529 172 521.4 172.1 518.9 171 515 171"></polygon>
                <polygon id="moldova_1_" points="520.2 185.6 523.3 190.4 523 193 524.1 193.1 526.7 188.7 523.5 184.8 521.7 184.1 520.2 185.6"></polygon>
                <polygon id="romania_1_" points="511.6 185.5 511.3 187 505.5 191.8 510.3 198.9 513.4 201.1 519 201.1 520.8 199.6 523.3 199.3 525.1 200.4 528.4 196.7 527.8 194.8 524.5 193.9 522.2 193.8 522.3 190.6 519.3 185.9 511.6 185.5"></polygon>
                <polygon id="montenegro_1_" points="504.3 205.1 504.3 204.2 503 202.3 500.9 205.3 501.3 206.6 503 206.9"></polygon>
                <polygon id="serbia_1_" points="505 192.4 502.9 193.9 501.9 193.9 501.2 196 503.6 198.8 503.8 201 503.5 201.5 505.1 203.8 505.2 205 506.4 206.1 510.2 204.9 509.9 199.4"></polygon>
                <polygon id="bulgaria_1_" points="510.9 200.2 511.1 205.2 512.8 208.7 519.1 208.8 521.9 206.8 524.7 205.7 524 202.5 524.6 200.8 523.2 200.1 521.2 200.3 519.7 201.8 513.3 201.9 510.9 200.2"></polygon>
                <polygon id="albania_1_" points="503.5 207.6 503.5 212.2 504.8 214.7 505.8 214.6 507.4 211.6 506.4 210.3 506 207 504.7 205.8 503.5 207.6"></polygon>
                <polygon id="macedonia_1_" points="510.4 205.9 507 207 507.2 209.9 508 210.9 512 209 510.4 205.9"></polygon>
                <polygon id="greece_1_" points="506.1 215.5 506 216.8 510.6 219.1 512.8 220 511.6 221.2 509 221.5 508.6 222.7 509.5 224.7 512.4 226.2 513.7 226.3 513.9 222.9 515.8 220.6 510.6 214.5 511.3 212.4 512.5 212.3 514.3 213.8 515.5 213.2 515.9 211.1 521.3 211.2 521.5 208 519.2 209.6 512.6 209.4 508.3 211.6 506.1 215.5"></polygon>
                <polygon id="thrace_1_" points="522.5 207.6 522.3 211.2 525.4 210.3 526.8 209.4 526.4 207.9 524.9 206.7 522.5 207.6"></polygon>
                <polygon id="crete_1_" points="516.2 228.4 517.8 228.4 518.5 229.4 520.9 229.4 522.5 228.8 523 229.4 522 230.8 517.4 231 516.6 229.9 515.7 229.4 516.2 228.4"></polygon>
            </g>
        </g>
    </g>
</svg>