<?xml version="1.0" encoding="utf-8"?>
<!-- Generator: Adobe Illustrator 21.0.0, SVG Export Plug-In . SVG Version: 6.00 Build 0)  -->
<svg version="1.0" id="Layer_1" xmlns="http://www.w3.org/2000/svg" xmlns:xlink="http://www.w3.org/1999/xlink" x="0px" y="0px"
	 width="46px" height="46px" viewBox="0 0 46 46" enable-background="new 0 0 46 46" xml:space="preserve">
<circle fill="#0094CD" cx="23" cy="23" r="23"/>
<g>
	<path fill="#FFFFFF" d="M12.638,25.46h-1.462v7.423H8.055V13.116h4.583c3.121,0,4.64,1.715,4.64,4.893v2.559
		C17.278,23.745,15.759,25.46,12.638,25.46L12.638,25.46z M14.157,17.812c0-1.406-0.534-1.856-1.518-1.856h-1.462v6.692h1.462
		c0.984,0,1.518-0.45,1.518-1.856V17.812L14.157,17.812z"/>
	<path fill="#FFFFFF" d="M35.306,25.46h-1.462v7.423h-3.121V13.116h4.583c3.121,0,4.64,1.715,4.64,4.893v2.559
		C39.945,23.745,38.427,25.46,35.306,25.46L35.306,25.46z M36.824,17.812c0-1.406-0.534-1.856-1.518-1.856h-1.462v6.692h1.462
		c0.984,0,1.518-0.45,1.518-1.856V17.812L36.824,17.812z"/>
	<polygon fill="#FFFFFF" points="25.583,32.884 21.712,18.642 21.712,32.884 18.936,32.884 18.936,13.201 22.844,13.201 
		26.021,24.996 26.021,13.201 28.796,13.201 28.796,32.884 25.583,32.884 	"/>
</g>
</svg>
