<?xml version="1.0" encoding="utf-8"?>
<!-- Generator: Adobe Illustrator 21.0.0, SVG Export Plug-In . SVG Version: 6.00 Build 0)  -->
<svg version="1.0" id="Layer_1" xmlns="http://www.w3.org/2000/svg" xmlns:xlink="http://www.w3.org/1999/xlink" x="0px" y="0px"
	 viewBox="0 0 410 140" style="enable-background:new 0 0 410 140;" xml:space="preserve">
<g id="XMLID_1_">
	<g id="XMLID_42_">
		<path id="XMLID_44_" d="M50,46.4H6.9c-0.2,0-0.3,0.1-0.3,0.3L2,93.2c0,0.1,0,0.2,0.1,0.3c0.1,0.1,0.2,0.1,0.2,0.1h7.1
			c0.1,0,0.2,0,0.2-0.1L50.2,47c0.1-0.1,0.1-0.2,0.1-0.4C50.2,46.5,50.1,46.4,50,46.4z"/>
		<path id="XMLID_43_" d="M106.6,93L66.1,46.5c-0.1-0.1-0.2-0.1-0.2-0.1h-7.1c-0.1,0-0.2,0-0.2,0.1c-0.1,0.1-0.1,0.2-0.1,0.3
			L63,93.3c0,0.2,0.2,0.3,0.3,0.3h43.1c0.1,0,0.2-0.1,0.3-0.2C106.7,93.3,106.7,93.1,106.6,93z"/>
	</g>
	<path id="XMLID_40_" d="M132,60V80h-3.2V60h-7.1v-2.9h17.4V60H132z"/>
	<path id="XMLID_37_" d="M152.6,73.6h-10.1L140,80h-3.4l9.1-22.9h3.6l9.1,22.9h-3.4L152.6,73.6z M143.6,70.6h7.9l-4-10.3L143.6,70.6
		z"/>
	<path id="XMLID_34_" d="M167.8,70.6h-3.4V80h-3.2V57.1h8.6c4.3,0,7,3,7,6.8c0,3.3-2.1,5.8-5.5,6.5l5.5,9.6H173L167.8,70.6z
		 M169.2,67.8c2.6,0,4.3-1.5,4.3-3.9c0-2.4-1.7-4-4.3-4h-4.8v7.8H169.2z"/>
	<path id="XMLID_32_" d="M188.1,60V80h-3.2V60h-7.1v-2.9h17.4V60H188.1z"/>
	<path id="XMLID_30_" d="M197.9,72.1V57.1h3.1v15c0,3.5,1.9,5.5,5.1,5.5c3.2,0,5.1-2,5.1-5.5v-15h3.2v15.1c0,5.4-3.6,8.3-8.2,8.3
		S197.9,77.5,197.9,72.1z"/>
	<path id="XMLID_27_" d="M222.2,70.6V80H219V57.1h8.3c4.2,0,7.1,2.9,7.1,6.8c0,3.9-2.8,6.7-7.1,6.7H222.2z M226.8,67.8
		c2.7,0,4.4-1.5,4.4-3.9c0-2.4-1.7-4-4.4-4h-4.6v7.8H226.8z"/>
	<path id="XMLID_24_" d="M250,74.7h-9.3l-1.9,5.2h-4.7l8.8-22.9h5.2l8.7,22.9h-4.8L250,74.7z M242.2,70.7h6.3l-3.2-8.6L242.2,70.7z"
		/>
	<path id="XMLID_22_" d="M258.4,71.9V57.1h4.5v14.4c0,3,1.7,4.6,4.3,4.6c2.7,0,4.4-1.6,4.4-4.6V57.1h4.5v14.8c0,5.6-3.9,8.6-8.8,8.6
		C262.3,80.5,258.4,77.5,258.4,71.9z"/>
	<path id="XMLID_20_" d="M289.7,61.3V80h-4.5V61.3h-6.7v-4.2h17.9v4.2H289.7z"/>
	<path id="XMLID_17_" d="M309.1,56.6c6.2,0,11.8,4.5,11.8,11.9c0,7.4-5.5,11.9-11.8,11.9c-6.2,0-11.7-4.5-11.7-11.9
		C297.4,61.2,302.9,56.6,309.1,56.6z M309.1,76.1c3.5,0,7.2-2.5,7.2-7.6c0-5.2-3.6-7.6-7.2-7.6c-3.5,0-7.1,2.5-7.1,7.6
		C302,73.7,305.6,76.1,309.1,76.1z"/>
	<path id="XMLID_13_" d="M332.7,57.1c4.5,0,7,2.6,7,6.2c0,2.4-1.4,4.3-3.3,4.9c2.2,0.5,4,2.6,4,5.4c0,3.7-2.8,6.4-7.1,6.4h-8.8V57.1
		H332.7z M332,66.5c2,0,3.3-1.1,3.3-2.9c0-1.7-1.1-2.8-3.3-2.8h-3.1v5.7H332z M332.4,76.2c2.2,0,3.5-1.1,3.5-3
		c0-1.8-1.2-3.1-3.4-3.1h-3.7v6H332.4z"/>
	<path id="XMLID_10_" d="M357.4,74.7h-9.3l-1.9,5.2h-4.7l8.8-22.9h5.2l8.7,22.9h-4.8L357.4,74.7z M349.6,70.7h6.3l-3.2-8.6
		L349.6,70.7z"/>
	<path id="XMLID_8_" d="M380.4,80v-9.5h-10V80H366V57.1h4.5v9.2h10v-9.2h4.5V80H380.4z"/>
	<path id="XMLID_6_" d="M403.3,80L393,63.7V80h-4.5V57.1h5.5l9.5,15.1V57.1h4.5V80H403.3z"/>
	<path id="XMLID_5_" d="M114.8,67.2l-3.4-0.7c-1.9-0.4-2.9-1.7-2.9-3.3c0-2.1,1.8-3.8,4.4-3.8c3,0,4.4,2,4.8,3.6l2.9-0.9
		c-0.6-2.5-2.7-5.5-7.7-5.5c-4.2,0-7.5,3.2-7.5,6.8c0,3.4,2.3,5.5,5.6,6.3l3.3,0.7c2.3,0.5,3.4,1.9,3.4,3.5c0,2-1.5,3.6-4.7,3.6
		c-3.4,0-5.2-2.2-5.5-4.7l-3,1c0.5,3.2,3.1,6.6,8.5,6.6c4.9,0,7.9-3.2,7.9-6.8C120.7,70.5,118.6,68.1,114.8,67.2z"/>
</g>
</svg>
