<?xml version="1.0" encoding="utf-8"?>
<!-- Generator: Adobe Illustrator 19.0.0, SVG Export Plug-In . SVG Version: 6.00 Build 0)  -->
<svg version="1.0" id="Layer_1" xmlns="http://www.w3.org/2000/svg" xmlns:xlink="http://www.w3.org/1999/xlink" x="0px" y="0px"
	 viewBox="0 0 400 120" style="enable-background:new 0 0 400 120;" xml:space="preserve">
<metadata><?xpacket begin="﻿" id="W5M0MpCehiHzreSzNTczkc9d"?>
<x:xmpmeta xmlns:x="adobe:ns:meta/" x:xmptk="Adobe XMP Core 5.6-c067 79.157747, 2015/03/30-23:40:42        ">
   <rdf:RDF xmlns:rdf="http://www.w3.org/1999/02/22-rdf-syntax-ns#">
      <rdf:Description rdf:about=""/>
   </rdf:RDF>
</x:xmpmeta>
                                                                                                    
                                                                                                    
                                                                                                    
                                                                                                    
                                                                                                    
                                                                                                    
                                                                                                    
                                                                                                    
                                                                                                    
                                                                                                    
                                                                                                    
                                                                                                    
                                                                                                    
                                                                                                    
                                                                                                    
                                                                                                    
                                                                                                    
                                                                                                    
                                                                                                    
                                                                                                    
                           
<?xpacket end="w"?></metadata>
<style type="text/css">
	.st0{fill:#010101;}
</style>
<g id="XMLID_2_">
	<path id="XMLID_16_" class="st0" d="M26.3,68.7h-5.2v26.4H10V24.8h16.3c11.1,0,16.5,6.1,16.5,17.4v9.1
		C42.8,62.6,37.4,68.7,26.3,68.7L26.3,68.7z M31.7,41.5c0-5-1.9-6.6-5.4-6.6h-5.2v23.8h5.2c3.5,0,5.4-1.6,5.4-6.6V41.5L31.7,41.5z
		 M46.4,95.1V24.8h11.1v60.3h18.2v10.1H46.4L46.4,95.1z M95,96c-10.9,0-16.5-6.4-16.5-17.7V24.8h11.1V79c0,5,2.2,6.8,5.7,6.8
		c3.5,0,5.7-1.8,5.7-6.8V24.8h10.5v53.6C111.5,89.6,105.9,96,95,96L95,96z M134.2,66V55.9h15.5v22.3c0,11.3-5.6,17.7-16.5,17.7
		s-16.5-6.4-16.5-17.7V41.7c0-11.3,5.6-17.7,16.5-17.7s16.5,6.4,16.5,17.7v6.8h-10.5V41c0-5-2.2-6.9-5.7-6.9c-3.5,0-5.7,1.9-5.7,6.9
		v38c0,5,2.2,6.8,5.7,6.8c3.5,0,5.7-1.8,5.7-6.8V66H134.2L134.2,66z"/>
	<path id="XMLID_9_" class="st0" d="M267.4,68.7h-5.2v26.4h-11.1V24.8h16.3c11.1,0,16.5,6.1,16.5,17.4v9.1
		C283.9,62.6,278.4,68.7,267.4,68.7L267.4,68.7z M272.8,41.5c0-5-1.9-6.6-5.4-6.6h-5.2v23.8h5.2c3.5,0,5.4-1.6,5.4-6.6V41.5
		L272.8,41.5z M287.5,95.2V24.8h11.1v60.3h18.2v10.1H287.5L287.5,95.2z M344.7,95.2l-1.9-12.8h-13.6l-1.9,12.8h-10.2l11.3-70.4h16.2
		l11.3,70.4H344.7L344.7,95.2z M336,37.3l-5.3,35.6h10.7L336,37.3L336,37.3z M376,71.8v23.3h-11.1V71.8l-14-47h11.6l8.5,32.1
		l8.5-32.1H390L376,71.8L376,71.8z"/>
	<path id="XMLID_3_" class="st0" d="M176.1,86.7l-1.5-9.8h-10.4l-1.5,9.8H155l8.6-53.9H176l8.6,53.9H176.1L176.1,86.7z M169.4,42.3
		l-4.1,27.3h8.2L169.4,42.3L169.4,42.3z M205.5,86.7l-10.6-39v39h-7.6V32.8H198l8.7,32.3V32.8h7.6v53.9H205.5L205.5,86.7z
		 M232.6,86.7h-13.4V32.8h13.4c8.5,0,12.6,4.7,12.6,13.3v27.3C245.2,82,241.1,86.7,232.6,86.7L232.6,86.7z M236.8,45.7
		c0-3.9-1.6-5.2-4.3-5.2h-4.8V79h4.8c2.7,0,4.3-1.4,4.3-5.2V45.7L236.8,45.7z"/>
</g>
</svg>
