<?xml version="1.0" encoding="utf-8"?>
<!-- Generator: Adobe Illustrator 21.0.0, SVG Export Plug-In . SVG Version: 6.00 Build 0)  -->
<svg version="1.0" id="Layer_1" xmlns="http://www.w3.org/2000/svg" xmlns:xlink="http://www.w3.org/1999/xlink" x="0px" y="0px"
	 viewBox="0 0 410 140" style="enable-background:new 0 0 410 140;" xml:space="preserve">
<g id="XMLID_1_">
	<g id="XMLID_42_">
		<path id="XMLID_44_" d="M50,46.4H6.9c-0.2,0-0.3,0.1-0.3,0.3L2,93.2c0,0.1,0,0.2,0.1,0.3c0.1,0.1,0.2,0.1,0.2,0.1h7.1
			c0.1,0,0.2,0,0.2-0.1L50.2,47c0.1-0.1,0.1-0.2,0.1-0.4C50.2,46.5,50.1,46.4,50,46.4z"/>
		<path id="XMLID_43_" d="M106.6,93L66.1,46.5c-0.1-0.1-0.2-0.1-0.2-0.1h-7.1c-0.1,0-0.2,0-0.2,0.1c-0.1,0.1-0.1,0.2-0.1,0.3
			L63,93.3c0,0.2,0.2,0.3,0.3,0.3h43.1c0.1,0,0.2-0.1,0.3-0.2C106.7,93.3,106.7,93.1,106.6,93z"/>
	</g>
	<path id="XMLID_40_" d="M132,48V68h-3.2V48h-7.1v-2.9h17.4V48H132z"/>
	<path id="XMLID_37_" d="M152.6,61.6h-10.1L140,68h-3.4l9.1-22.9h3.6l9.1,22.9h-3.4L152.6,61.6z M143.6,58.6h7.9l-4-10.3L143.6,58.6
		z"/>
	<path id="XMLID_34_" d="M167.8,58.6h-3.4V68h-3.2V45.1h8.6c4.3,0,7,3,7,6.8c0,3.3-2.1,5.8-5.5,6.5l5.5,9.6H173L167.8,58.6z
		 M169.2,55.8c2.6,0,4.3-1.5,4.3-3.9c0-2.4-1.7-4-4.3-4h-4.8v7.8H169.2z"/>
	<path id="XMLID_32_" d="M188.1,48V68h-3.2V48h-7.1v-2.9h17.4V48H188.1z"/>
	<path id="XMLID_30_" d="M197.9,60.1V45.1h3.1v15c0,3.5,1.9,5.5,5.1,5.5c3.2,0,5.1-2,5.1-5.5v-15h3.2v15.1c0,5.4-3.6,8.3-8.2,8.3
		S197.9,65.5,197.9,60.1z"/>
	<path id="XMLID_27_" d="M222.2,58.6V68H219V45.1h8.3c4.2,0,7.1,2.9,7.1,6.8c0,3.9-2.8,6.7-7.1,6.7H222.2z M226.8,55.8
		c2.7,0,4.4-1.5,4.4-3.9c0-2.4-1.7-4-4.4-4h-4.6v7.8H226.8z"/>
	<path id="XMLID_24_" d="M250,62.7h-9.3l-1.9,5.2h-4.7l8.8-22.9h5.2l8.7,22.9h-4.8L250,62.7z M242.2,58.7h6.3l-3.2-8.6L242.2,58.7z"
		/>
	<path id="XMLID_22_" d="M258.4,59.9V45.1h4.5v14.4c0,3,1.7,4.6,4.3,4.6c2.7,0,4.4-1.6,4.4-4.6V45.1h4.5v14.8c0,5.6-3.9,8.6-8.8,8.6
		C262.3,68.5,258.4,65.5,258.4,59.9z"/>
	<path id="XMLID_20_" d="M289.7,49.3V68h-4.5V49.3h-6.7v-4.2h17.9v4.2H289.7z"/>
	<path id="XMLID_17_" d="M309.1,44.6c6.2,0,11.8,4.5,11.8,11.9c0,7.4-5.5,11.9-11.8,11.9c-6.2,0-11.7-4.5-11.7-11.9
		C297.4,49.2,302.9,44.6,309.1,44.6z M309.1,64.1c3.5,0,7.2-2.5,7.2-7.6c0-5.2-3.6-7.6-7.2-7.6c-3.5,0-7.1,2.5-7.1,7.6
		C302,61.7,305.6,64.1,309.1,64.1z"/>
	<path id="XMLID_13_" d="M332.7,45.1c4.5,0,7,2.6,7,6.2c0,2.4-1.4,4.3-3.3,4.9c2.2,0.5,4,2.6,4,5.4c0,3.7-2.8,6.4-7.1,6.4h-8.8V45.1
		H332.7z M332,54.5c2,0,3.3-1.1,3.3-2.9c0-1.7-1.1-2.8-3.3-2.8h-3.1v5.7H332z M332.4,64.2c2.2,0,3.5-1.1,3.5-3
		c0-1.8-1.2-3.1-3.4-3.1h-3.7v6H332.4z"/>
	<path id="XMLID_10_" d="M357.4,62.7h-9.3l-1.9,5.2h-4.7l8.8-22.9h5.2l8.7,22.9h-4.8L357.4,62.7z M349.6,58.7h6.3l-3.2-8.6
		L349.6,58.7z"/>
	<path id="XMLID_8_" d="M380.4,68v-9.5h-10V68H366V45.1h4.5v9.2h10v-9.2h4.5V68H380.4z"/>
	<path id="XMLID_6_" d="M403.3,68L393,51.7V68h-4.5V45.1h5.5l9.5,15.1V45.1h4.5V68H403.3z"/>
	<path id="XMLID_5_" d="M114.8,55.2l-3.4-0.7c-1.9-0.4-2.9-1.7-2.9-3.3c0-2.1,1.8-3.8,4.4-3.8c3,0,4.4,2,4.8,3.6l2.9-0.9
		c-0.6-2.5-2.7-5.5-7.7-5.5c-4.2,0-7.5,3.2-7.5,6.8c0,3.4,2.3,5.5,5.6,6.3l3.3,0.7c2.3,0.5,3.4,1.9,3.4,3.5c0,2-1.5,3.6-4.7,3.6
		c-3.4,0-5.2-2.2-5.5-4.7l-3,1c0.5,3.2,3.1,6.6,8.5,6.6c4.9,0,7.9-3.2,7.9-6.8C120.7,58.5,118.6,56.1,114.8,55.2z"/>
</g>
<g>
	<path d="M196.2,88.4c0.6,1.8,2.2,2.8,4.2,2.8c2.2,0,3.7-1.1,3.7-2.9c0-1.3-0.7-2.1-2.7-2.6l-3-0.8c-2.3-0.6-4-1.8-4-4.3
		c0-2.8,2.3-4.7,5.5-4.7c3.5,0,5.5,1.8,6.1,4.4h-2.1c-0.5-1.5-1.8-2.6-4-2.6c-2,0-3.5,1-3.5,2.7c0,1.4,0.9,2.1,2.7,2.6l2.9,0.7
		c2.7,0.7,4.2,2.1,4.2,4.5c0,3-2.4,4.8-5.8,4.8c-3.3,0-5.8-1.7-6.4-4.6H196.2z"/>
	<path d="M209.9,78.3c-0.7,0-1.3-0.6-1.3-1.3c0-0.7,0.6-1.3,1.3-1.3c0.7,0,1.3,0.6,1.3,1.3C211.3,77.7,210.7,78.3,209.9,78.3z
		 M211,92.7h-2V80.6h2V92.7z"/>
	<path d="M214.6,80.6h2v1.5c0.7-1,2-1.8,3.6-1.8c2.7,0,4.2,1.8,4.2,4.4v7.9h-2.1v-7.6c0-1.7-0.8-2.9-2.7-2.9c-1.4,0-2.6,1-3.1,2.3
		v8.2h-2V80.6z"/>
	<path d="M235.8,91c-0.6,0.8-1.9,1.6-3.4,1.6c-3.5,0-5.4-2.9-5.4-6.1c0-3.2,1.9-6.1,5.4-6.1c1.5,0,2.8,0.8,3.4,1.6v-1.4h2.1v11.1
		c0,4-2.3,5.8-5.4,5.8c-2.9,0-4.8-1.5-5.2-4h2c0.4,1.5,1.5,2.3,3.2,2.3c2.2,0,3.3-1.4,3.3-4V91z M235.8,84.1
		c-0.6-1.1-1.8-1.9-3.1-1.9c-2.3,0-3.6,1.8-3.6,4.3c0,2.5,1.3,4.3,3.6,4.3c1.3,0,2.4-0.7,3.1-1.9V84.1z"/>
	<path d="M248.3,92.7v-0.9c-0.5,0.5-1.7,1.1-3.2,1.1c-2.4,0-4.5-1.5-4.5-3.9c0-2.3,2-3.8,4.6-3.8c1.2,0,2.5,0.5,3,1v-1.5
		c0-1.5-0.9-2.6-2.7-2.6c-1.3,0-2.1,0.5-2.5,1.7h-2c0.4-2,2.2-3.4,4.5-3.4c2.9,0,4.6,1.6,4.6,4.3v8H248.3z M248.3,88.5
		c-0.4-0.9-1.6-1.5-2.8-1.5c-1.5,0-2.9,0.7-2.9,2.1c0,1.5,1.4,2.1,2.9,2.1c1.2,0,2.5-0.6,2.8-1.5V88.5z"/>
	<path d="M255.8,97.3h-2V80.6h2v1.4c0.6-0.9,1.9-1.7,3.4-1.7c3.6,0,5.4,2.9,5.4,6.3c0,3.3-1.9,6.3-5.4,6.3c-1.5,0-2.8-0.8-3.4-1.7
		V97.3z M255.8,89.1c0.6,1.2,1.8,2,3.1,2c2.3,0,3.7-1.9,3.7-4.4c0-2.6-1.4-4.4-3.7-4.4c-1.3,0-2.5,0.7-3.1,2V89.1z"/>
	<path d="M272.1,93c-3.3,0-5.5-2.6-5.5-6.3c0-3.7,2.2-6.3,5.5-6.3c3.3,0,5.5,2.6,5.5,6.3C277.7,90.4,275.4,93,272.1,93z M272.1,82.2
		c-2.2,0-3.5,1.8-3.5,4.5s1.3,4.5,3.5,4.5s3.5-1.8,3.5-4.5S274.3,82.2,272.1,82.2z"/>
	<path d="M286.6,82.7c-0.3-0.2-0.8-0.3-1.4-0.3c-1.3,0-2.4,0.8-2.8,2.3v8.1h-2V80.6h2v1.6c0.5-1,1.7-1.8,3-1.8c0.5,0,1,0.1,1.2,0.2
		V82.7z"/>
	<path d="M298.3,89.1c-0.4,2.3-2.1,3.9-4.9,3.9c-3.3,0-5.5-2.5-5.5-6.2c0-3.6,2.2-6.3,5.5-6.3c3.3,0,5.1,2.4,5.1,5.9v0.7H290
		c0,2.6,1.5,4.2,3.5,4.2c1.5,0,2.6-0.8,2.9-2.1H298.3z M290,85.5h6.4c0-1.8-1-3.4-3-3.4C291.6,82.1,290.3,83.4,290,85.5z"/>
</g>
</svg>
