<?xml version="1.0" standalone="no"?>
<!DOCTYPE svg PUBLIC "-//W3C//DTD SVG 20010904//EN"
 "http://www.w3.org/TR/2001/REC-SVG-20010904/DTD/svg10.dtd">
<svg version="1.0" xmlns="http://www.w3.org/2000/svg"
 width="700.000000pt" height="700.000000pt" viewBox="0 0 700.000000 700.000000"
 preserveAspectRatio="xMidYMid meet">
<metadata>
Created by potrace 1.11, written by Peter Selinger 2001-2013
</metadata>
<g transform="translate(0.000000,700.000000) scale(0.100000,-0.100000)"
fill="#000000" stroke="none">
<path d="M844 4838 c-14 -22 -271 -2662 -261 -2675 7 -10 62 -13 213 -13 182
0 206 2 222 18 87 89 2308 2648 2310 2663 3 19 -19 19 -1237 19 -959 0 -1242
-3 -1247 -12z"/>
<path d="M3813 4838 c-11 -16 249 -2664 263 -2678 7 -7 462 -9 1245 -8 1148 3
1234 4 1234 20 0 12 -2219 2570 -2307 2660 -16 16 -40 18 -222 18 -151 0 -206
-3 -213 -12z"/>
</g>
</svg>
