<?xml version="1.0" encoding="UTF-8"?>
<svg width="50px" height="250px" viewBox="0 0 50 250" version="1.1" xmlns="http://www.w3.org/2000/svg" xmlns:xlink="http://www.w3.org/1999/xlink">
    <!-- Generator: Sketch 48.2 (47327) - http://www.bohemiancoding.com/sketch -->
    <title>main</title>
    <desc>Created with Sketch.</desc>
    <defs></defs>
    <g id="Page-2" stroke="none" stroke-width="1" fill="none" fill-rule="evenodd">
        <g id="main" fill="#FFFFFF" fill-rule="nonzero">
            <g id="weixin" transform="translate(13.000000, 215.179993)">
                <path d="M16.2444617,5.91818648 C16.5237862,5.91818648 16.7943817,5.93127982 17.0649772,5.96619537 C16.3404795,2.54447103 12.6699818,0 8.49757307,0 C3.81888877,0 0,3.17731546 0,7.21879089 C0,9.54940415 1.27878218,11.4741241 3.39990212,12.9623996 L2.55756436,15.519964 L5.52538649,14.0316885 C6.59031091,14.2411818 7.4370131,14.4550396 8.50193751,14.4550396 C8.77253306,14.4550396 9.03003527,14.4419462 9.30063082,14.420124 C9.12605305,13.8571107 9.03003527,13.2591818 9.03003527,12.6394307 C9.02567083,8.9340175 12.2117152,5.91818648 16.2444617,5.91818648 Z M11.6836174,3.60939544 C12.3164618,3.60939544 12.7398129,4.03274654 12.7398129,4.67431985 C12.7398129,5.30716428 12.3164618,5.73051538 11.6836174,5.73051538 C11.0376797,5.73051538 10.4048352,5.30716428 10.4048352,4.67431985 C10.4091997,4.03274654 11.0420441,3.60939544 11.6836174,3.60939544 Z M5.73051538,5.73051538 C5.09767095,5.73051538 4.45173319,5.30716428 4.45173319,4.67431985 C4.45173319,4.0283821 5.09767095,3.60939544 5.73051538,3.60939544 C6.37645314,3.60939544 6.79543979,4.03274654 6.79543979,4.67431985 C6.79543979,5.31152872 6.37645314,5.73051538 5.73051538,5.73051538 Z M24.0044437,12.5434129 C24.0044437,9.14351083 20.6045416,6.37645314 16.7856528,6.37645314 C12.7398129,6.37645314 9.56686192,9.14351083 9.56686192,12.5434129 C9.56686192,15.9433151 12.7441774,18.7103728 16.7856528,18.7103728 C17.6279906,18.7103728 18.4834216,18.4877861 19.3432172,18.2782928 L21.6738304,19.5570749 L21.0278927,17.435955 C22.7387548,16.1528084 24.0044437,14.4550396 24.0044437,12.5434129 Z M14.4419462,11.4741241 C14.0185951,11.4741241 13.5996085,11.050773 13.5996085,10.618693 C13.5996085,10.1953419 14.0229596,9.77635525 14.4419462,9.77635525 C15.087884,9.77635525 15.5068706,10.1997063 15.5068706,10.618693 C15.5068706,11.0551374 15.0835195,11.4741241 14.4419462,11.4741241 Z M19.1162661,11.4741241 C18.692915,11.4741241 18.2739283,11.050773 18.2739283,10.618693 C18.2739283,10.1953419 18.6972794,9.77635525 19.1162661,9.77635525 C19.7491105,9.77635525 20.1811905,10.1997063 20.1811905,10.618693 C20.1855549,11.0551374 19.7491105,11.4741241 19.1162661,11.4741241 Z" id="Shape"></path>
            </g>
            <g id="weibo" transform="translate(13.000000, 165.270004)">
                <path d="M19.078125,6.825 C19.434375,5.7 18.45,4.63125 17.325,4.8703125 C16.29375,5.0953125 15.975,3.553125 16.9921875,3.3328125 C19.340625,2.821875 21.31875,5.071875 20.578125,7.3078125 C20.259375,8.3015625 18.759375,7.8140625 19.078125,6.825 Z M10.06875,19.4390625 C5.0859375,19.4390625 0,17.0296875 0,13.05 C0,10.9734375 1.3125,8.578125 3.5765625,6.3140625 C8.25,1.640625 13.1015625,1.584375 11.7140625,6.046875 C11.5265625,6.6609375 12.290625,6.3140625 12.290625,6.328125 C16.0171875,4.753125 18.8765625,5.540625 17.634375,8.7375 C17.4609375,9.178125 17.6859375,9.2484375 18.0234375,9.3515625 C24.384375,11.334375 19.6546875,19.4390625 10.06875,19.4390625 Z M16.8046875,12.58125 C16.5515625,9.9703125 13.125,8.175 9.1453125,8.5640625 C5.1703125,8.9671875 2.1703125,11.390625 2.4234375,14.0015625 C2.6765625,16.6125 6.103125,18.4078125 10.0828125,18.01875 C14.0578125,17.615625 17.0578125,15.1921875 16.8046875,12.58125 Z M16.3078125,0.1453125 C15.09375,0.4078125 15.5203125,2.19375 16.696875,1.940625 C20.0859375,1.228125 23.015625,4.415625 21.9328125,7.753125 C21.5859375,8.8875 23.296875,9.4875 23.6859375,8.315625 C25.18125,3.6375 21.103125,-0.8671875 16.3078125,0.1453125 Z M12.628125,14.7234375 C11.8265625,16.5421875 9.496875,17.5359375 7.5140625,16.89375 C5.6015625,16.2796875 4.7953125,14.390625 5.625,12.6890625 C6.4546875,11.0296875 8.5828125,10.0921875 10.471875,10.575 C12.440625,11.08125 13.4296875,12.928125 12.628125,14.7234375 Z M8.5828125,13.3171875 C7.978125,13.0640625 7.1765625,13.33125 6.8015625,13.921875 C6.4125,14.5265625 6.6,15.234375 7.2046875,15.515625 C7.81875,15.796875 8.6484375,15.5296875 9.0375,14.9109375 C9.4125,14.296875 9.2109375,13.584375 8.5828125,13.3171875 Z M10.1109375,12.6890625 C9.871875,12.609375 9.5765625,12.7171875 9.440625,12.9421875 C9.3046875,13.18125 9.375,13.4390625 9.6140625,13.546875 C9.853125,13.640625 10.1625,13.5328125 10.2984375,13.29375 C10.4296875,13.05 10.35,12.7828125 10.1109375,12.6890625 Z" id="Shape"></path>
            </g>
            <g id="linkedin-in" transform="translate(15.000000, 115.019997)">
                <path d="M4.46770601,19.9554566 L0.329621381,19.9554566 L0.329621381,6.6325167 L4.46770601,6.6325167 L4.46770601,19.9554566 Z M2.39643653,4.81514477 C1.07349666,4.81514477 0,3.71937639 0,2.39643653 C0,1.07349666 1.07349666,0 2.39643653,0 C3.71937639,0 4.79287305,1.07349666 4.79287305,2.39643653 C4.79287305,3.71937639 3.71937639,4.81514477 2.39643653,4.81514477 Z M19.9554566,19.9554566 L15.8262806,19.9554566 L15.8262806,13.4699332 C15.8262806,11.9242762 15.7951002,9.94209354 13.674833,9.94209354 C11.5233853,9.94209354 11.1937639,11.6213808 11.1937639,13.3585746 L11.1937639,19.9554566 L7.06013363,19.9554566 L7.06013363,6.6325167 L11.0289532,6.6325167 L11.0289532,8.44988864 L11.0868597,8.44988864 C11.6391982,7.40311804 12.9888641,6.29844098 15.0022272,6.29844098 C19.1893096,6.29844098 19.9599109,9.05567929 19.9599109,12.636971 L19.9599109,19.9554566 L19.9554566,19.9554566 Z" id="Shape"></path>
            </g>
            <g id="envelope" transform="translate(13.000000, 66.000000)">
                <path d="M21.75,0 L2.25,0 C1.00734375,0 0,1.00734375 0,2.25 L0,15.75 C0,16.9926562 1.00734375,18 2.25,18 L21.75,18 C22.9926562,18 24,16.9926562 24,15.75 L24,2.25 C24,1.00734375 22.9926562,0 21.75,0 Z M21.75,2.25 L21.75,4.16273438 C20.6989687,5.018625 19.023375,6.3495 15.4412344,9.15445313 C14.6518125,9.77540625 13.0880625,11.2672031 12,11.2498125 C10.912125,11.2673906 9.34785937,9.77517188 8.55876562,9.15445313 C4.9771875,6.34992188 3.30117187,5.01876563 2.25,4.16273438 L2.25,2.25 L21.75,2.25 Z M2.25,15.75 L2.25,7.04990625 C3.32409375,7.90542188 4.84729687,9.1059375 7.16896875,10.9239375 C8.19351562,11.7304219 9.98775,13.5107812 12,13.4999531 C14.0023594,13.5107812 15.7738594,11.75625 16.8306094,10.9243125 C19.1522344,9.10635937 20.6758594,7.90551562 21.75,7.04990625 L21.75,15.75 L2.25,15.75 Z" id="Shape"></path>
            </g>
            <g id="globe" transform="translate(13.000000, 13.000000)">
                <path d="M17.2362097,8.90322581 L23.5957258,8.90322581 C23.8589032,9.89124194 23.9999516,10.9290968 23.9999516,12 C23.9999516,13.0709032 23.8589032,14.1087581 23.5957258,15.0967742 L17.2362097,15.0967742 C17.4855968,13.0137581 17.4751935,10.8993871 17.2362097,8.90322581 Z M8.57487097,16.6451613 C9.09154839,19.2425806 10.1800161,22.0893871 11.9680161,23.9996129 C11.9787097,23.9996613 11.9893065,24 12,24 C12.0106935,24 12.0212903,23.9996129 12.0319839,23.9996129 C13.8228871,22.0862419 14.9094194,19.2376452 15.425129,16.6451613 L8.57487097,16.6451613 Z M17.0005161,7.35483871 L23.0675323,7.35483871 C21.5226774,3.67858065 18.1997419,0.934112903 14.175,0.197177419 C15.638129,2.28362903 16.5373065,4.85840323 17.0005161,7.35483871 Z M15.677129,8.90322581 L8.32287097,8.90322581 C8.06453226,10.9313226 8.06424194,13.0663065 8.32287097,15.0967742 L15.6771774,15.0967742 C15.9355161,13.068629 15.9358065,10.9336935 15.677129,8.90322581 Z M6.99948387,16.6451613 L0.932467742,16.6451613 C2.47727419,20.3214194 5.80020968,23.0658871 9.82495161,23.8028226 C8.36143548,21.7155968 7.46254839,19.1407258 6.99948387,16.6451613 Z M17.0005161,16.6451613 C16.5372097,19.1421774 15.6377903,21.7168065 14.175,23.8028226 C18.1997419,23.0658871 21.5226774,20.3214194 23.0674839,16.6451613 L17.0005161,16.6451613 Z M15.425129,7.35483871 C14.9084516,4.75741935 13.8199355,1.9106129 12.0319839,0.000387096774 C12.0212903,0.000387096774 12.0106935,0 12,0 C11.9893065,0 11.9787097,0.000387096774 11.9680161,0.000387096774 C10.1771129,1.91375806 9.09058065,4.76235484 8.57487097,7.35483871 L15.425129,7.35483871 Z M0.404274194,8.90322581 C0.141048387,9.89124194 0,10.9290968 0,12 C0,13.0709032 0.141048387,14.1087581 0.404274194,15.0967742 L6.76379032,15.0967742 C6.52480645,13.1006129 6.51440323,10.9862419 6.76379032,8.90322581 L0.404274194,8.90322581 Z M6.99948387,7.35483871 C7.46279032,4.85796774 8.3621129,2.2833871 9.825,0.197177419 C5.80025806,0.934112903 2.47732258,3.67858065 0.932467742,7.35483871 L6.99948387,7.35483871 Z" id="Shape"></path>
            </g>
        </g>
    </g>
</svg>