<?xml version="1.0" encoding="utf-8"?>
<!-- Generator: Adobe Illustrator 21.0.0, SVG Export Plug-In . SVG Version: 6.00 Build 0)  -->
<svg version="1.0" id="Ebene_1" xmlns="http://www.w3.org/2000/svg" xmlns:xlink="http://www.w3.org/1999/xlink" x="0px" y="0px"
	 width="30px" height="348.3px" viewBox="0 0 30 348.3" enable-background="new 0 0 30 348.3" xml:space="preserve">
<path fill="#FFFFFF" d="M29.4,79.2c-0.9,0.2-2.5,0-3.3-0.3c1.6-0.2,2.7-0.9,3.2-1.9c-0.6,0.3-2.4,0.8-3.3,0.3c0-0.2-0.2-0.5-0.2-0.6
	c-0.8-2.8-3.3-5.1-6.2-4.7c0.2-0.2,0.5-0.2,0.6-0.3c0.3-0.2,2.1-0.5,1.7-0.9c-0.2-0.5-2.4,0.5-2.8,0.5c0.5-0.2,1.4-0.5,1.6-1.1
	c-0.8,0.2-1.6,0.5-2.2,1.1c0.2-0.3,0.3-0.5,0.5-0.8c-2.2,1.4-3.5,4.3-4.6,7c-0.8-0.8-1.6-1.4-2.2-1.7c-1.7-0.9-4-2.1-7.4-3.3
	c-0.2,1.1,0.6,2.7,2.5,3.6c-0.5,0-1.1,0-1.7,0.2c0.3,1.3,1.1,2.4,3.2,2.8c-0.9,0-1.6,0.3-1.9,0.8c0.5,0.9,1.6,1.9,3.5,1.7
	c-2.2,0.9-0.9,2.7,0.9,2.5c-3,3.2-7.9,3-10.8,0.3c7.3,10,23.1,5.9,25.5-3.6C27.8,80.4,28.8,79.8,29.4,79.2z"/>
<path fill="#FFFFFF" d="M16.3,3.9h3.2V0h-3.2c-2.7,0-4.8,2.3-4.8,5.3v2H8.3v4.1h3.2v9.7h4.1v-9.7h4.1V7.3h-4.1V5.2
	C15.4,4.4,15.9,3.9,16.3,3.9z"/>
<path id="YouTube" fill="#FFFFFF" d="M23.4,172.4h-1.6v-0.9c0-0.4,0.3-0.7,0.8-0.7h0.1c0.4,0,0.8,0.3,0.8,0.7L23.4,172.4z
	 M17.4,170.5c-0.4,0-0.7,0.3-0.7,0.6v4.4c0,0.3,0.3,0.6,0.7,0.6c0.4,0,0.7-0.3,0.7-0.6v-4.4C18.1,170.7,17.8,170.5,17.4,170.5z
	 M27.2,168v8.4c0,2-1.8,3.6-4,3.6H6.8c-2.2,0-4-1.6-4-3.6V168c0-2,1.8-3.6,4-3.6h16.4C25.4,164.4,27.2,166,27.2,168z M7.8,177.3
	v-8.8h2v-1.3H4.4v1.3h1.7v8.8H7.8z M13.9,169.8h-1.7v4.7c0,0.7,0,1,0,1.1c-0.1,0.4-0.8,0.8-1,0c0-0.1,0-0.5,0-1.1v-4.7H9.5v4.7
	c0,0.7,0,1.2,0,1.5c0,0.4,0,0.9,0.4,1.2c0.8,0.5,2.2-0.1,2.6-0.8v1h1.4V169.8L13.9,169.8z M19.4,175.2v-3.9c0-1.5-1.2-2.4-2.7-1.2
	v-2.9H15v10h1.4l0.1-0.6C18.3,178.1,19.4,177.1,19.4,175.2z M24.7,174.6h-1.3c0,0,0,0.1,0,0.2v0.7c0,0.4-0.3,0.7-0.7,0.7h-0.2
	c-0.4,0-0.7-0.3-0.7-0.7v-0.1v-0.8v-1h2.9v-1.1c0-0.8,0-1.6-0.1-2c-0.2-1.4-2.2-1.6-3.3-0.9c-0.3,0.2-0.6,0.5-0.7,0.9
	s-0.2,1-0.2,1.7v2.3C20.4,178.5,25.3,178,24.7,174.6z M18.2,162c0.1,0.2,0.2,0.4,0.4,0.5c0.2,0.1,0.4,0.2,0.7,0.2
	c0.2,0,0.5-0.1,0.7-0.2c0.2-0.1,0.3-0.3,0.5-0.6v0.6h1.9v-7.8h-1.5v6.1c0,0.3-0.3,0.6-0.6,0.6c-0.3,0-0.6-0.3-0.6-0.6v-6.1h-1.6v5.2
	c0,0.7,0,1.1,0,1.3C18,161.6,18.1,161.8,18.2,162z M12.4,157.6c0-0.7,0.1-1.3,0.2-1.8c0.1-0.4,0.4-0.8,0.7-1
	c0.3-0.3,0.8-0.4,1.3-0.4c0.4,0,0.8,0.1,1.1,0.2c0.3,0.2,0.6,0.4,0.7,0.6c0.2,0.3,0.3,0.5,0.4,0.8s0.1,0.7,0.1,1.3v2
	c0,0.7,0,1.3-0.1,1.6s-0.2,0.7-0.4,0.9c-0.2,0.3-0.4,0.5-0.7,0.6c-0.3,0.1-0.6,0.2-1,0.2s-0.8-0.1-1.1-0.2c-0.3-0.1-0.5-0.3-0.7-0.5
	s-0.3-0.5-0.4-0.9c-0.1-0.3-0.1-0.9-0.1-1.5V157.6L12.4,157.6z M13.9,160.7c0,0.4,0.3,0.8,0.8,0.8c0.4,0,0.8-0.4,0.8-0.8v-4.1
	c0-0.4-0.3-0.8-0.8-0.8c-0.4,0-0.8,0.4-0.8,0.8V160.7z M8.7,162.8h1.8v-6l2.1-5.1h-2l-1.1,3.8l-1.1-3.8H6.5l2.2,5.1V162.8z"/>
<g id="Group-2" transform="translate(106.000000, 0.000000)">
	<g id="Fill-358">
		<path fill="#FFFFFF" d="M-91,255.8c-2.3,0-4.2-1.9-4.2-4.2c0-2.3,1.9-4.2,4.2-4.2s4.2,1.9,4.2,4.2
			C-86.8,253.8-88.6,255.8-91,255.8L-91,255.8z M-91,245.1c-3.7,0-6.6,2.9-6.6,6.6s2.9,6.6,6.6,6.6c3.7,0,6.6-2.9,6.6-6.6
			S-87.3,245.1-91,245.1L-91,245.1z"/>
	</g>
	<g id="Fill-359">
		<path fill="#FFFFFF" d="M-84.2,243.5c-0.8,0-1.5,0.6-1.5,1.5s0.6,1.5,1.5,1.5c0.8,0,1.5-0.6,1.5-1.5
			C-82.6,244-83.4,243.5-84.2,243.5"/>
	</g>
	<g id="Fill-360">
		<path fill="#FFFFFF" d="M-80.5,256.9c0,1.6-0.5,2.9-1.5,3.7c-1,0.8-2.3,1.3-3.7,1.3h-10.5c-1.5,0-2.9-0.5-3.7-1.3
			c-1-1-1.5-2.3-1.5-3.9v-10.6c0-1.6,0.5-2.9,1.5-3.7c1-1,2.3-1.3,3.7-1.3h10.6c1.6,0,2.9,0.5,3.7,1.5c1,1,1.5,2.3,1.5,3.7
			L-80.5,256.9L-80.5,256.9z M-80.2,240.8c-1.3-1.5-3.2-2.1-5.5-2.1h-10.6c-4.5,0-7.4,3.1-7.4,7.4v10.6c0,2.3,0.8,4.2,2.1,5.5
			c1.3,1.3,3.2,2.1,5.3,2.1h10.5c2.3,0,4-0.6,5.5-2.1c1.5-1.3,2.1-3.2,2.1-5.5v-10.6C-78.1,244-78.9,242.4-80.2,240.8L-80.2,240.8z"
			/>
	</g>
</g>
<g>
	<g>
		<g>
			<path fill="#FFFFFF" d="M25.8,319.3H4.1c-1,0-1.9,0.8-1.9,1.8v21.9c0,1,0.8,1.8,1.9,1.8h21.8c1,0,1.9-0.8,1.9-1.8v-21.9
				C27.7,320.2,26.9,319.3,25.8,319.3z M9.8,341.1H6v-12.2h3.8V341.1z M7.9,327.3c-1.2,0-2.2-1-2.2-2.2c0-1.2,1-2.2,2.2-2.2
				c1.2,0,2.2,1,2.2,2.2C10.1,326.3,9.1,327.3,7.9,327.3z M24,341.1h-3.8v-5.9c0-1.4,0-3.2-2-3.2c-2,0-2.3,1.5-2.3,3.1v6h-3.8v-12.2
				h3.6v1.7h0.1c0.5-1,1.7-2,3.6-2c3.8,0,4.5,2.5,4.5,5.8V341.1z"/>
		</g>
	</g>
</g>
</svg>
