<?xml version="1.0" encoding="utf-8"?>
<!-- Generator: Adobe Illustrator 19.1.0, SVG Export Plug-In . SVG Version: 6.00 Build 0)  -->
<svg version="1.1" id="Layer_1" xmlns="http://www.w3.org/2000/svg" xmlns:xlink="http://www.w3.org/1999/xlink" x="0px" y="0px"
	 width="25.5px" height="164px" viewBox="-466 225.9 25.5 164" style="enable-background:new -466 225.9 25.5 164;"
	 xml:space="preserve">
<style type="text/css">
	.st0{display:none;}
	.st1{display:inline;fill:#5B0B0B;}
	.st2{fill:#FFFFFF;}
</style>
<g id="Layer_2" class="st0">
	<rect x="-1944.5" y="1582.4" class="st1" width="261.5" height="284.5"/>
</g>
<path class="st2" d="M-457,225.9c-5,0-9,4-9,9s4,9,9,9s9-4,9-9S-452,225.9-457,225.9z M-459.3,238.2v-6.9l5.9,3.6L-459.3,238.2z"/>
<path class="st2" d="M-442.4,283.6v-10.9c-0.3,0.3-0.6,0.7-1,0.9c-2.5,2-4.6,3.6-6.1,4.8c-0.5,0.4-0.9,0.7-1.2,1
	c-0.3,0.3-0.7,0.5-1.2,0.7s-1,0.3-1.5,0.3l0,0c-0.5,0-0.9-0.1-1.5-0.3c-0.5-0.2-0.9-0.5-1.2-0.7c-0.3-0.2-0.7-0.5-1.2-1
	c-1.5-1.2-3.5-2.9-6.1-4.8c-0.4-0.3-0.7-0.6-1-0.9v10.9c0,0.1,0,0.2,0.1,0.3s0.2,0.1,0.3,0.1h20.9c0.1,0,0.2,0,0.3-0.1
	S-442.4,283.8-442.4,283.6z M-442.4,268.7v-0.3v-0.2V268l-0.1-0.1l-0.1-0.1h-0.2h-20.9c-0.1,0-0.2,0-0.3,0.1s-0.1,0.2-0.1,0.3
	c0,1.6,0.7,2.9,2.1,4c1.8,1.4,3.7,2.9,5.7,4.5c0.1,0,0.2,0.2,0.5,0.4c0.3,0.2,0.5,0.4,0.7,0.5s0.4,0.3,0.6,0.4
	c0.3,0.2,0.5,0.3,0.7,0.4s0.4,0.1,0.6,0.1l0,0c0.2,0,0.4,0,0.6-0.1s0.5-0.2,0.7-0.4c0.3-0.2,0.5-0.3,0.6-0.4
	c0.2-0.1,0.4-0.3,0.7-0.5c0.3-0.2,0.4-0.4,0.5-0.4c2-1.6,3.9-3.1,5.7-4.5c0.5-0.4,1-1,1.4-1.6C-442.6,269.9-442.4,269.3-442.4,268.7
	z M-440.5,268.2v15.5c0,0.6-0.2,1.2-0.7,1.6s-1,0.7-1.6,0.7h-20.9c-0.6,0-1.2-0.2-1.6-0.7s-0.7-1-0.7-1.6v-15.5
	c0-0.6,0.2-1.2,0.7-1.6s1-0.7,1.6-0.7h20.9c0.6,0,1.2,0.2,1.6,0.7C-440.8,267.1-440.5,267.5-440.5,268.2z"/>
<path class="st2" d="M-459,322.4v13.5h-4.5v-13.5H-459z M-458.7,318.2c0,0.7-0.2,1.2-0.7,1.7c-0.5,0.4-1.1,0.7-1.8,0.7l0,0
	c-0.7,0-1.3-0.2-1.8-0.7c-0.5-0.4-0.7-1-0.7-1.7s0.2-1.2,0.7-1.7s1.1-0.7,1.8-0.7c0.8,0,1.4,0.2,1.8,0.7
	C-458.9,317-458.7,317.6-458.7,318.2z M-442.8,328.2v7.7h-4.5v-7.2c0-1-0.2-1.7-0.6-2.2s-0.9-0.8-1.7-0.8c-0.6,0-1.1,0.2-1.4,0.5
	s-0.7,0.7-0.9,1.2c-0.1,0.3-0.1,0.6-0.1,1.1v7.5h-4.5c0-3.6,0-6.6,0-8.8c0-2.3,0-3.6,0-4v-0.7h4.5v2l0,0c0.2-0.3,0.4-0.5,0.6-0.8
	c0.2-0.2,0.4-0.5,0.8-0.7c0.3-0.3,0.7-0.5,1.2-0.6s1-0.2,1.6-0.2c1.6,0,2.8,0.5,3.7,1.5C-443.3,324.7-442.8,326.2-442.8,328.2z"/>
<g>
	<path class="st2" d="M-442.2,373.2c-1.3-3-3.4-5.1-6.4-6.4c-1.5-0.6-3-1-4.7-1c-1.6,0-3.2,0.3-4.7,1c-2.9,1.3-5.1,3.4-6.4,6.4
		c-0.6,1.5-0.9,3-0.9,4.7c0,1.6,0.3,3.2,0.9,4.7c1.3,3,3.4,5.1,6.4,6.4c1.5,0.6,3,1,4.7,1c1.6,0,3.2-0.3,4.7-1
		c3-1.3,5.1-3.4,6.4-6.4c0.6-1.5,1-3,1-4.7C-441.2,376.3-441.6,374.7-442.2,373.2z M-457.2,368.1c-1,1.3-1.8,3-2.3,5h-3.1
		C-461.5,370.9-459.6,369.1-457.2,368.1z M-463.8,377.9c0-1.1,0.2-2.2,0.5-3.3h3.4c-0.2,1.1-0.2,2.2-0.2,3.3c0,1.1,0.1,2.2,0.2,3.3
		h-3.5C-463.6,380.1-463.8,379-463.8,377.9z M-462.7,382.6h3.1c0.5,2.1,1.2,3.8,2.3,5.1C-459.6,386.7-461.5,384.9-462.7,382.6z
		 M-454,388.3c-0.9-0.2-1.7-0.9-2.4-1.9c-0.7-1-1.3-2.3-1.7-3.8h4V388.3z M-454,381.2h-4.4c-0.2-1.2-0.3-2.3-0.3-3.3
		c0-1.1,0.1-2.2,0.3-3.3h4.3L-454,381.2L-454,381.2z M-454,373.1h-4c0.4-1.5,1-2.8,1.7-3.8c0.7-1,1.5-1.7,2.3-1.9L-454,373.1
		L-454,373.1z M-443.8,373.1h-3.1c-0.5-2-1.2-3.7-2.3-5C-446.9,369.1-445,370.9-443.8,373.1z M-452.5,367.5c0.9,0.2,1.6,0.9,2.3,1.9
		c0.7,1,1.3,2.3,1.7,3.8h-4V367.5z M-452.5,374.6h4.3c0.2,1.1,0.3,2.2,0.3,3.3c0,1-0.1,2.1-0.3,3.3h-4.4V374.6z M-452.5,388.3v-5.7
		h4c-0.4,1.5-1,2.8-1.7,3.8C-450.9,387.4-451.6,388.1-452.5,388.3z M-449.3,387.7c1-1.3,1.8-3,2.3-5.1h3.1
		C-445,384.9-446.9,386.7-449.3,387.7z M-443.2,381.2h-3.5c0.2-1.1,0.2-2.2,0.2-3.3c0-1.1-0.1-2.2-0.2-3.3h3.4
		c0.4,1.1,0.5,2.2,0.5,3.3C-442.7,379-442.9,380.1-443.2,381.2z"/>
</g>
</svg>
